<svg width="9" height="17" viewBox="0 0 9 17" fill="none" xmlns="http://www.w3.org/2000/svg">
<path d="M0.344159 0.374196C0.123794 0.613866 1.11961e-08 0.938885 1.52374e-08 1.27778C1.92786e-08 1.61667 0.123794 1.94169 0.344159 2.18136L6.16269 8.50772L0.344159 14.8341C0.130039 15.0751 0.0115597 15.398 0.0142376 15.7331C0.0169155 16.0682 0.140537 16.3887 0.358478 16.6257C0.576417 16.8626 0.871238 16.997 1.17944 17C1.48764 17.0029 1.78457 16.874 2.00626 16.6412L8.65584 9.4113C8.87621 9.17163 9 8.84661 9 8.50772C9 8.16882 8.87621 7.8438 8.65584 7.60413L2.00626 0.374196C1.78583 0.134599 1.4869 2.27361e-08 1.17521 2.36793e-08C0.863519 2.46226e-08 0.56459 0.134599 0.344159 0.374196Z" fill="#757F8C"/>
</svg>
