<svg width="124" height="100" viewBox="0 0 124 100" fill="none" xmlns="http://www.w3.org/2000/svg">
<path d="M11.8891 97.5646L14.2977 97.5645L15.4436 88.5571L11.8886 88.5573L11.8891 97.5646Z" fill="#FFB6B6"/>
<path d="M11.8043 99.9999L19.2113 99.9996V99.9088C19.2113 99.1675 18.9075 98.4566 18.3669 97.9325C17.8262 97.4083 17.0929 97.1138 16.3283 97.1138H16.3281L14.9751 96.1187L12.4507 97.1139L11.8041 97.114L11.8043 99.9999Z" fill="#212427"/>
<path d="M15.7787 86.6662L17.675 88.1062L24.3065 81.7005L21.5078 79.5752L15.7787 86.6662Z" fill="#FFB6B6"/>
<path d="M14.1623 88.5336L19.9935 92.9618L20.0512 92.8903C20.5227 92.3067 20.7358 91.5655 20.6435 90.8296C20.5513 90.0938 20.1614 89.4235 19.5595 88.9664L19.5594 88.9663L19.1272 87.374L16.5069 86.6483L15.9979 86.2617L14.1623 88.5336Z" fill="#212427"/>
<path d="M27.119 45.626C27.119 45.626 30.3158 48.84 28.895 56.3013L30.0878 69.0767L30.3956 69.6681C30.5791 70.0205 30.6431 70.4201 30.5787 70.8098C30.5142 71.1996 30.3245 71.5597 30.0366 71.8388L29.783 72.6012L29.5462 74.0935L20.7253 86.9498L17.3508 83.5061L22.7973 71.4533L21.3173 68.3541L17.8836 57.564L15.5156 77.3075L15.9892 94.2962H11.4569L8.64833 75.3561L5.68829 48.7253L7.22798 45.626H27.119Z" fill="#212427"/>
<path d="M6.42659 51.1494L6.39429 51.1055C4.66914 48.7639 7.26378 43.1372 7.65511 42.3216C7.19041 42.1754 6.79236 41.8775 6.52874 41.4787C6.26512 41.08 6.15224 40.6049 6.20932 40.1345L6.37801 38.7443L6.55385 37.3806L5.2941 36.1593L5.29056 36.1289L4.56559 29.979L3.51152 25.8943C3.11435 24.3502 3.1482 22.7313 3.60959 21.2041C4.07097 19.6768 4.94328 18.296 6.13695 17.2036L8.57345 16.8285L11.5345 14.0625H16.3097L17.9469 15.5791C21.0034 16.0987 21.5285 15.9291 24.1539 18.9834L22.9609 28.4795L22.6633 29.7859L22.6642 31.5578L23.4208 32.373C23.6934 32.6666 23.8914 33.0179 23.9992 33.3989C24.1069 33.7798 24.1214 34.1799 24.0415 34.5673L23.942 35.0496C24.7223 35.3738 25.4669 41.1355 25.6448 41.9403L25.9106 43.1425C26.1379 43.4333 27.6386 45.3732 27.6386 45.9035C27.6386 45.9831 27.578 46.0601 27.4479 46.1454C26.4252 46.8168 22.348 51.5792 19.8463 50.6087C17.1814 49.5757 6.58837 51.1254 6.48165 51.1412L6.42659 51.1494Z" fill="#BEC5C9"/>
<path d="M5.78485 40.1063C5.78485 40.1063 7.0111 33.3876 5.77573 30.8608L0.874939 31.2002L1.62077 40.7852L5.90497 51.4276C5.83958 51.7555 5.86484 52.0943 5.97819 52.4097C6.09153 52.725 6.28893 53.0057 6.55034 53.2232C6.81175 53.4407 7.12786 53.5872 7.46659 53.648C7.80531 53.7088 8.15459 53.6815 8.47896 53.5691C8.80332 53.4567 9.09123 53.2631 9.31346 53.0079C9.53568 52.7527 9.68431 52.4451 9.74425 52.1162C9.80419 51.7874 9.7733 51.449 9.65474 51.1354C9.53617 50.8219 9.33414 50.5443 9.06915 50.3309L5.78485 40.1063Z" fill="#FFB6B6"/>
<path d="M0.875155 27.2967L1.17846 24.0945C1.29262 22.8893 1.65143 21.7179 2.23425 20.6476C2.81707 19.5773 3.6124 18.6293 4.5745 17.8582C5.17228 17.3825 5.89536 17.0785 6.66203 16.9804C7.4287 16.8823 8.20839 16.994 8.913 17.3029C9.86524 17.7279 10.6155 18.4877 11.012 19.4285C11.4086 20.3693 11.4219 21.4209 11.0492 22.3709C9.91647 25.2509 10.3255 28.2965 8.11683 28.6679L8.35679 29.7746L6.18515 36.6453L0 35.9507L0.875155 27.2967Z" fill="#BEC5C9"/>
<path d="M33.4963 36.9227C33.4963 36.9227 29.9066 31.054 27.2704 29.9194L23.7833 33.2751L30.7962 40.0701L41.2027 45.4296C41.3737 45.7195 41.6207 45.9604 41.9188 46.1278C42.2168 46.2952 42.5553 46.3832 42.8998 46.3828C43.2442 46.3824 43.5825 46.2937 43.8801 46.1256C44.1778 45.9575 44.4243 45.716 44.5945 45.4257C44.7648 45.1354 44.8529 44.8066 44.8497 44.4727C44.8465 44.1387 44.7523 43.8115 44.5765 43.5243C44.4007 43.2371 44.1497 43.0001 43.8489 42.8373C43.5481 42.6746 43.2082 42.5919 42.8638 42.5977L33.4963 36.9227Z" fill="#FFB6B6"/>
<path d="M21.158 30.3155L19.234 27.6961C18.5099 26.7103 17.9939 25.5954 17.7159 24.4155C17.4378 23.2357 17.403 22.0142 17.6137 20.8213C17.7469 20.0828 18.0906 19.3951 18.6058 18.836C19.121 18.2769 19.7873 17.8687 20.5293 17.6574C21.5371 17.3776 22.6168 17.4792 23.5503 17.9417C24.4838 18.4043 25.2013 19.1932 25.5577 20.1489C26.6362 23.0484 30.5702 27.8138 29.1456 29.4916L30.072 30.179L31.472 34.0457L26.3158 37.4295L21.158 30.3155Z" fill="#BEC5C9"/>
<path d="M13.5997 12.7255C16.5285 12.7255 18.9028 10.4236 18.9028 7.58416C18.9028 4.7447 16.5285 2.44287 13.5997 2.44287C10.6709 2.44287 8.29657 4.7447 8.29657 7.58416C8.29657 10.4236 10.6709 12.7255 13.5997 12.7255Z" fill="#FFB6B6"/>
<path d="M9.75091 11.2083C9.70471 11.1689 9.66111 11.1269 9.61596 11.0864C9.61434 11.0906 9.61409 11.0948 9.61237 11.099L9.75091 11.2083Z" fill="#212427"/>
<path d="M17.9457 2.15512C17.6822 1.7439 17.3173 1.40277 16.8838 1.16249C16.5875 1.02317 16.2762 0.916226 15.9555 0.84362L15.1162 0.621623C14.6862 0.492622 14.2438 0.406259 13.7958 0.363866C13.1737 0.334113 12.5551 0.470675 12.0076 0.758634C11.4601 1.04659 11.0048 1.47487 10.6913 1.9967C10.4377 2.43272 10.2344 2.97606 9.74498 3.13558C9.35038 3.26421 8.91984 3.08277 8.50513 3.11797C8.26211 3.15211 8.03153 3.24384 7.83383 3.38503C7.63612 3.52621 7.47739 3.7125 7.37169 3.92738C7.16501 4.35979 7.06328 4.83237 7.07434 5.30884C7.05804 6.39058 7.27581 7.46362 7.71359 8.45874C8.15138 9.45387 8.79945 10.349 9.61602 11.0863C9.7529 10.7366 9.52746 10.3589 9.34925 10.0243C9.16892 9.68578 9.05749 9.21377 9.3595 8.96993C9.69555 8.6986 10.234 8.96172 10.6314 8.78478C10.7585 8.71397 10.8656 8.61374 10.9431 8.49303C11.0205 8.37232 11.066 8.2349 11.0753 8.09303C11.1138 7.81191 11.0736 7.52614 11.0918 7.24311C11.1098 6.96254 11.185 6.68822 11.313 6.43598C11.441 6.18375 11.6193 5.9586 11.8376 5.77353C12.0558 5.58846 12.3097 5.44715 12.5846 5.35775C12.8595 5.26835 13.15 5.23263 13.4392 5.25266C14.3438 5.31531 15.2218 5.9146 16.0923 5.66806C16.501 5.55233 16.8495 5.25767 17.2721 5.20811C17.7402 5.15321 18.1805 5.40931 18.5779 5.65521C18.7223 5.06069 18.7408 4.44393 18.6321 3.84231C18.5234 3.24068 18.2899 2.66669 17.9457 2.15512Z" fill="#212427"/>
<path d="M42.2812 40.7938V89.498C42.2818 90.1187 42.5363 90.7138 42.989 91.1527C43.4417 91.5915 44.0555 91.8383 44.6957 91.8388H119.142C119.782 91.8383 120.396 91.5916 120.849 91.1527C121.302 90.7138 121.556 90.1187 121.557 89.498V40.7938C121.555 40.1737 121.3 39.5794 120.848 39.1411C120.395 38.7029 119.782 38.4564 119.142 38.4556H44.6957C44.0561 38.4564 43.4428 38.7029 42.9903 39.1411C42.5377 39.5794 42.2828 40.1737 42.2812 40.7938Z" fill="#3F3D56"/>
<path d="M44.0275 41.4001V88.8976C44.0281 89.2292 44.1642 89.547 44.4061 89.7815C44.6479 90.016 44.9758 90.148 45.3179 90.1486H118.522C118.864 90.148 119.192 90.016 119.434 89.7815C119.676 89.547 119.812 89.2292 119.813 88.8976V41.4001C119.813 41.0681 119.677 40.7496 119.435 40.5146C119.193 40.2796 118.865 40.1472 118.522 40.1465H45.3179C44.9754 40.1472 44.6472 40.2796 44.4053 40.5146C44.1634 40.7496 44.0275 41.0681 44.0275 41.4001Z" fill="white"/>
<path d="M40.6416 99.3112C40.7783 99.4767 40.952 99.6102 41.1497 99.7015C41.3475 99.7929 41.564 99.8398 41.7832 99.8388H121.664C121.883 99.8385 122.098 99.7912 122.295 99.7003C122.493 99.6094 122.666 99.4772 122.804 99.3133C122.942 99.1495 123.04 98.958 123.091 98.7529C123.142 98.5478 123.146 98.3342 123.101 98.1277L121.861 92.4385C121.81 92.2065 121.699 91.9906 121.539 91.8104C121.379 91.6303 121.175 91.4916 120.946 91.4071C120.78 91.3441 120.603 91.3118 120.424 91.312H43.0183C42.8398 91.3118 42.6629 91.3441 42.4967 91.4071C42.2672 91.4916 42.0632 91.6303 41.9034 91.8104C41.7435 91.9905 41.6329 92.2064 41.5815 92.4385L40.3415 98.1277C40.2974 98.3341 40.3014 98.5474 40.3533 98.7522C40.4053 98.9569 40.5037 99.1479 40.6416 99.3112Z" fill="#212427"/>
<path d="M117.405 93.439H119.689C119.736 93.439 119.774 93.4019 119.774 93.3561V92.0936C119.774 92.0479 119.736 92.0108 119.689 92.0108H117.405C117.357 92.0108 117.319 92.0479 117.319 92.0936V93.3561C117.319 93.4019 117.357 93.439 117.405 93.439Z" fill="#3F3D56"/>
<path d="M112.495 93.439H114.779C114.826 93.439 114.864 93.4019 114.864 93.3561V92.0936C114.864 92.0479 114.826 92.0108 114.779 92.0108H112.495C112.447 92.0108 112.409 92.0479 112.409 92.0936V93.3561C112.409 93.4019 112.447 93.439 112.495 93.439Z" fill="#3F3D56"/>
<path d="M107.584 93.439H109.868C109.916 93.439 109.954 93.4019 109.954 93.3561V92.0936C109.954 92.0479 109.916 92.0108 109.868 92.0108H107.584C107.537 92.0108 107.499 92.0479 107.499 92.0936V93.3561C107.499 93.4019 107.537 93.439 107.584 93.439Z" fill="#3F3D56"/>
<path d="M102.674 93.439H104.958C105.005 93.439 105.043 93.4019 105.043 93.3561V92.0936C105.043 92.0479 105.005 92.0108 104.958 92.0108H102.674C102.626 92.0108 102.588 92.0479 102.588 92.0936V93.3561C102.588 93.4019 102.626 93.439 102.674 93.439Z" fill="#3F3D56"/>
<path d="M97.7632 93.439H100.047C100.095 93.439 100.133 93.4019 100.133 93.3561V92.0936C100.133 92.0479 100.095 92.0108 100.047 92.0108H97.7632C97.716 92.0108 97.6778 92.0479 97.6778 92.0936V93.3561C97.6778 93.4019 97.716 93.439 97.7632 93.439Z" fill="#3F3D56"/>
<path d="M92.8528 93.439H95.1371C95.1843 93.439 95.2225 93.4019 95.2225 93.3561V92.0936C95.2225 92.0479 95.1843 92.0108 95.1371 92.0108H92.8528C92.8056 92.0108 92.7674 92.0479 92.7674 92.0936V93.3561C92.7674 93.4019 92.8056 93.439 92.8528 93.439Z" fill="#3F3D56"/>
<path d="M87.9428 93.439H90.227C90.2742 93.439 90.3125 93.4019 90.3125 93.3561V92.0936C90.3125 92.0479 90.2742 92.0108 90.227 92.0108H87.9428C87.8956 92.0108 87.8573 92.0479 87.8573 92.0936V93.3561C87.8573 93.4019 87.8956 93.439 87.9428 93.439Z" fill="#3F3D56"/>
<path d="M83.0324 93.439H85.3166C85.3638 93.439 85.4021 93.4019 85.4021 93.3561V92.0936C85.4021 92.0479 85.3638 92.0108 85.3166 92.0108H83.0324C82.9852 92.0108 82.9469 92.0479 82.9469 92.0936V93.3561C82.9469 93.4019 82.9852 93.439 83.0324 93.439Z" fill="#3F3D56"/>
<path d="M78.122 93.439H80.4063C80.4534 93.439 80.4917 93.4019 80.4917 93.3561V92.0936C80.4917 92.0479 80.4534 92.0108 80.4063 92.0108H78.122C78.0748 92.0108 78.0365 92.0479 78.0365 92.0936V93.3561C78.0365 93.4019 78.0748 93.439 78.122 93.439Z" fill="#3F3D56"/>
<path d="M73.2115 93.439H75.4958C75.543 93.439 75.5812 93.4019 75.5812 93.3561V92.0936C75.5812 92.0479 75.543 92.0108 75.4958 92.0108H73.2115C73.1643 92.0108 73.1261 92.0479 73.1261 92.0936V93.3561C73.1261 93.4019 73.1643 93.439 73.2115 93.439Z" fill="#3F3D56"/>
<path d="M68.3011 93.439H70.5854C70.6326 93.439 70.6708 93.4019 70.6708 93.3561V92.0936C70.6708 92.0479 70.6326 92.0108 70.5854 92.0108H68.3011C68.2539 92.0108 68.2157 92.0479 68.2157 92.0936V93.3561C68.2157 93.4019 68.2539 93.439 68.3011 93.439Z" fill="#3F3D56"/>
<path d="M63.3906 93.439H65.6749C65.7221 93.439 65.7604 93.4019 65.7604 93.3561V92.0936C65.7604 92.0479 65.7221 92.0108 65.6749 92.0108H63.3906C63.3435 92.0108 63.3052 92.0479 63.3052 92.0936V93.3561C63.3052 93.4019 63.3435 93.439 63.3906 93.439Z" fill="#3F3D56"/>
<path d="M58.4806 93.439H60.7649C60.8121 93.439 60.8503 93.4019 60.8503 93.3561V92.0936C60.8503 92.0479 60.8121 92.0108 60.7649 92.0108H58.4806C58.4334 92.0108 58.3952 92.0479 58.3952 92.0936V93.3561C58.3952 93.4019 58.4334 93.439 58.4806 93.439Z" fill="#3F3D56"/>
<path d="M53.5702 93.439H55.8545C55.9017 93.439 55.9399 93.4019 55.9399 93.3561V92.0936C55.9399 92.0479 55.9017 92.0108 55.8545 92.0108H53.5702C53.523 92.0108 53.4848 92.0479 53.4848 92.0936V93.3561C53.4848 93.4019 53.523 93.439 53.5702 93.439Z" fill="#3F3D56"/>
<path d="M48.6598 93.439H50.9441C50.9913 93.439 51.0295 93.4019 51.0295 93.3561V92.0936C51.0295 92.0479 50.9913 92.0108 50.9441 92.0108H48.6598C48.6126 92.0108 48.5744 92.0479 48.5744 92.0936V93.3561C48.5744 93.4019 48.6126 93.439 48.6598 93.439Z" fill="#3F3D56"/>
<path d="M43.7494 93.439H46.0336C46.0808 93.439 46.1191 93.4019 46.1191 93.3561V92.0936C46.1191 92.0479 46.0808 92.0108 46.0336 92.0108H43.7494C43.7022 92.0108 43.6639 92.0479 43.6639 92.0936V93.3561C43.6639 93.4019 43.7022 93.439 43.7494 93.439Z" fill="#3F3D56"/>
<path d="M117.463 95.8198H119.747C119.794 95.8198 119.833 95.7827 119.833 95.737V94.4745C119.833 94.4288 119.794 94.3917 119.747 94.3917H117.463C117.416 94.3917 117.377 94.4288 117.377 94.4745V95.737C117.377 95.7827 117.416 95.8198 117.463 95.8198Z" fill="#3F3D56"/>
<path d="M112.553 95.8198H114.837C114.884 95.8198 114.922 95.7827 114.922 95.737V94.4745C114.922 94.4288 114.884 94.3917 114.837 94.3917H112.553C112.505 94.3917 112.467 94.4288 112.467 94.4745V95.737C112.467 95.7827 112.505 95.8198 112.553 95.8198Z" fill="#3F3D56"/>
<path d="M107.642 95.8198H109.926C109.974 95.8198 110.012 95.7827 110.012 95.737V94.4745C110.012 94.4288 109.974 94.3917 109.926 94.3917H107.642C107.595 94.3917 107.557 94.4288 107.557 94.4745V95.737C107.557 95.7827 107.595 95.8198 107.642 95.8198Z" fill="#3F3D56"/>
<path d="M102.732 95.8198H105.016C105.063 95.8198 105.101 95.7827 105.101 95.737V94.4745C105.101 94.4288 105.063 94.3917 105.016 94.3917H102.732C102.684 94.3917 102.646 94.4288 102.646 94.4745V95.737C102.646 95.7827 102.684 95.8198 102.732 95.8198Z" fill="#3F3D56"/>
<path d="M97.8216 95.8198H100.106C100.153 95.8198 100.191 95.7827 100.191 95.737V94.4745C100.191 94.4288 100.153 94.3917 100.106 94.3917H97.8216C97.7744 94.3917 97.7362 94.4288 97.7362 94.4745V95.737C97.7362 95.7827 97.7744 95.8198 97.8216 95.8198Z" fill="#3F3D56"/>
<path d="M92.9112 95.8198H95.1954C95.2426 95.8198 95.2809 95.7827 95.2809 95.737V94.4745C95.2809 94.4288 95.2426 94.3917 95.1954 94.3917H92.9112C92.864 94.3917 92.8257 94.4288 92.8257 94.4745V95.737C92.8257 95.7827 92.864 95.8198 92.9112 95.8198Z" fill="#3F3D56"/>
<path d="M88.0004 95.8198H90.2847C90.3319 95.8198 90.3701 95.7827 90.3701 95.737V94.4745C90.3701 94.4288 90.3319 94.3917 90.2847 94.3917H88.0004C87.9532 94.3917 87.9149 94.4288 87.9149 94.4745V95.737C87.9149 95.7827 87.9532 95.8198 88.0004 95.8198Z" fill="#3F3D56"/>
<path d="M83.0904 95.8198H85.3746C85.4218 95.8198 85.4601 95.7827 85.4601 95.737V94.4745C85.4601 94.4288 85.4218 94.3917 85.3746 94.3917H83.0904C83.0432 94.3917 83.0049 94.4288 83.0049 94.4745V95.737C83.0049 95.7827 83.0432 95.8198 83.0904 95.8198Z" fill="#3F3D56"/>
<path d="M78.18 95.8198H80.4642C80.5114 95.8198 80.5497 95.7827 80.5497 95.737V94.4745C80.5497 94.4288 80.5114 94.3917 80.4642 94.3917H78.18C78.1328 94.3917 78.0945 94.4288 78.0945 94.4745V95.737C78.0945 95.7827 78.1328 95.8198 78.18 95.8198Z" fill="#3F3D56"/>
<path d="M73.2696 95.8198H75.5538C75.601 95.8198 75.6393 95.7827 75.6393 95.737V94.4745C75.6393 94.4288 75.601 94.3917 75.5538 94.3917H73.2696C73.2224 94.3917 73.1841 94.4288 73.1841 94.4745V95.737C73.1841 95.7827 73.2224 95.8198 73.2696 95.8198Z" fill="#3F3D56"/>
<path d="M68.359 95.8198H70.6433C70.6905 95.8198 70.7288 95.7827 70.7288 95.737V94.4745C70.7288 94.4288 70.6905 94.3917 70.6433 94.3917H68.359C68.3118 94.3917 68.2736 94.4288 68.2736 94.4745V95.737C68.2736 95.7827 68.3118 95.8198 68.359 95.8198Z" fill="#3F3D56"/>
<path d="M63.449 95.8198H65.7333C65.7805 95.8198 65.8187 95.7827 65.8187 95.737V94.4745C65.8187 94.4288 65.7805 94.3917 65.7333 94.3917H63.449C63.4018 94.3917 63.3636 94.4288 63.3636 94.4745V95.737C63.3636 95.7827 63.4018 95.8198 63.449 95.8198Z" fill="#3F3D56"/>
<path d="M58.5386 95.8198H60.8229C60.8701 95.8198 60.9083 95.7827 60.9083 95.737V94.4745C60.9083 94.4288 60.8701 94.3917 60.8229 94.3917H58.5386C58.4914 94.3917 58.4531 94.4288 58.4531 94.4745V95.737C58.4531 95.7827 58.4914 95.8198 58.5386 95.8198Z" fill="#3F3D56"/>
<path d="M53.6281 95.8198H55.9124C55.9596 95.8198 55.9979 95.7827 55.9979 95.737V94.4745C55.9979 94.4288 55.9596 94.3917 55.9124 94.3917H53.6281C53.5809 94.3917 53.5427 94.4288 53.5427 94.4745V95.737C53.5427 95.7827 53.5809 95.8198 53.6281 95.8198Z" fill="#3F3D56"/>
<path d="M48.7177 95.8198H51.002C51.0492 95.8198 51.0875 95.7827 51.0875 95.737V94.4745C51.0875 94.4288 51.0492 94.3917 51.002 94.3917H48.7177C48.6705 94.3917 48.6323 94.4288 48.6323 94.4745V95.737C48.6323 95.7827 48.6705 95.8198 48.7177 95.8198Z" fill="#3F3D56"/>
<path d="M43.8077 95.8198H46.092C46.1392 95.8198 46.1774 95.7827 46.1774 95.737V94.4745C46.1774 94.4288 46.1392 94.3917 46.092 94.3917H43.8077C43.7605 94.3917 43.7223 94.4288 43.7223 94.4745V95.737C43.7223 95.7827 43.7605 95.8198 43.8077 95.8198Z" fill="#3F3D56"/>
<path d="M71.2811 98.6758H90.7516C90.7988 98.6758 90.8371 98.6387 90.8371 98.5929V97.3305C90.8371 97.2847 90.7988 97.2476 90.7516 97.2476H71.2811C71.2339 97.2476 71.1957 97.2847 71.1957 97.3305V98.5929C71.1957 98.6387 71.2339 98.6758 71.2811 98.6758Z" fill="#3F3D56"/>
<path d="M98.5969 68.9183C98.5888 72.9278 97.0339 76.7894 94.2379 79.7439C91.4418 82.6983 87.607 84.5319 83.4872 84.8842C79.3674 85.2364 75.2607 84.0819 71.9744 81.6474C68.6882 79.213 66.4601 75.6749 65.7283 71.7286C64.9964 67.7823 65.8137 63.7133 68.0195 60.3216C70.2252 56.9299 73.6599 54.4608 77.6482 53.3997C81.6366 52.3386 85.8901 52.7624 89.5725 54.5876C93.2549 56.4128 96.0999 59.5074 97.5482 63.2631C97.5843 63.3574 97.6195 63.4517 97.6538 63.547V63.5479C97.8066 63.9664 97.9413 64.3928 98.0577 64.8269C98.4169 66.1628 98.5981 67.5378 98.5969 68.9183Z" fill="#518DED"/>
<path d="M80.0957 58.0099C79.3462 57.617 78.5141 57.3952 77.6628 57.3615C76.8115 57.3277 75.9635 57.4829 75.1835 57.8151C74.4967 58.1049 73.7735 58.6247 73.5444 59.5634C74.471 59.0332 75.6706 59.8709 75.909 61.2148L75.8533 61.2297C75.7274 62.1605 76.0085 63.1738 76.5529 63.751C76.5933 63.4906 76.6931 63.2422 76.845 63.0238C76.9969 62.8054 77.197 62.6226 77.4308 62.4886C77.8308 62.2337 78.2732 62.0486 78.5784 61.6105C78.9403 61.0911 79.0322 60.332 79.176 59.6396C79.3197 58.9472 79.5925 58.2029 80.0957 58.0099Z" fill="#B7DE6A"/>
<path d="M74.9085 65.9314C74.6518 66.305 74.309 66.5395 74.0015 66.8314C73.6464 67.1445 73.4134 67.5667 73.3418 68.0269C73.3029 68.352 73.3631 68.6826 73.3548 69.0113C73.3464 69.3401 73.2334 69.7101 73.0027 69.7919C72.6386 69.9194 72.3607 69.2637 71.9864 69.2179C71.689 69.182 71.4212 69.6356 71.5074 70.029C71.5935 70.4224 71.9984 70.5967 72.231 70.3398C72.4413 70.682 72.293 71.3027 71.9771 71.4078C71.9437 71.6233 71.9104 71.838 71.878 72.0536C71.0793 71.5119 70.2724 70.9613 69.5933 70.1682C68.838 69.2936 68.3695 68.2201 68.248 67.0856C68.16 66.1739 68.2906 65.1311 67.8589 64.4296C67.5133 63.8682 66.9204 63.7442 66.3867 63.7793C66.2894 63.7855 66.1912 63.7963 66.0939 63.808C66.4087 62.8916 66.8084 62.0047 67.2882 61.1583C67.3967 61.1131 67.4976 61.0522 67.5874 60.9777C68.084 60.5691 68.3045 59.7418 68.7075 59.1696C68.7335 59.1328 68.7604 59.0969 68.7881 59.0619C69.2004 58.54 69.7526 58.2714 70.2863 58.0217C71.4675 57.4657 72.6831 56.9025 73.9301 56.9798L73.5753 57.013C73.1612 58.1376 72.7467 59.2622 72.3319 60.3867C72.2689 60.5592 72.2053 60.7319 72.1411 60.905C71.9058 61.5445 71.663 62.2253 71.6992 62.9412C71.7205 63.3652 71.8724 63.8179 72.1615 63.9634C72.4311 64.0981 72.7257 63.9328 72.986 63.7694C73.0963 63.7011 73.2056 63.6328 73.3159 63.5637C73.7115 63.3167 74.1497 63.0634 74.5675 63.2286C74.9502 63.3795 75.2328 63.8834 75.2865 64.4269C75.3358 64.9551 75.2028 65.4843 74.9085 65.9314Z" fill="#B7DE6A"/>
<path d="M77.2616 73.6083C76.1061 72.9186 74.9507 72.2289 73.7953 71.5392L73.8149 71.4902C73.0965 71.7555 72.7983 72.9935 72.917 74.0059C73.0357 75.0183 73.4383 75.9234 73.6417 76.9099C73.9159 78.2598 73.8124 79.6563 73.3419 80.9544C74.8612 79.3017 76.2058 77.5055 77.3555 75.5927C77.5161 75.3516 77.6384 75.0885 77.7185 74.8122C77.8033 74.5178 77.7731 74.2034 77.6336 73.9292C77.539 73.7939 77.4112 73.6836 77.2616 73.6083Z" fill="#B7DE6A"/>
<path d="M72.7014 61.0607C72.5657 61.3431 72.5448 61.6647 72.6428 61.9614C72.7568 62.2005 72.9636 62.3862 73.2182 62.4781L73.8566 62.7849C74.069 62.8869 74.2979 62.99 74.5145 62.906C74.7756 62.8048 74.9567 62.4079 74.9098 62.0394C74.86 61.6473 74.605 61.3776 74.3693 61.1479C74.0393 60.8264 73.7093 60.505 73.3794 60.1836L73.1934 60.4044C72.9923 60.5946 72.8259 60.8165 72.7014 61.0607Z" fill="#B7DE6A"/>
<path d="M95.1743 65.2531C95.4615 65.3186 95.7487 65.3842 96.0359 65.4498C95.9858 66.3902 95.505 67.2606 94.8602 67.5758C94.5915 67.707 94.2922 67.7555 94.0699 68.0007C93.8689 68.2234 93.7669 68.5702 93.6734 68.9016C93.5094 69.4801 93.3454 70.0585 93.1814 70.6369C93.0054 71.2603 92.7793 71.9528 92.3216 72.1774C91.9288 72.3705 91.4795 72.1343 91.1774 71.7381C90.8754 71.342 90.691 70.8094 90.5122 70.2902C90.5233 70.8561 90.2519 71.4112 89.8674 71.6079C89.4819 71.8046 89.0131 71.6268 88.7556 71.1875C88.5703 70.8723 88.4934 70.4564 88.3118 70.1366C88.1302 69.8169 87.7494 69.6336 87.5512 69.9336C87.4205 70.1331 87.4372 70.4384 87.3723 70.6917C87.3397 70.8599 87.2538 71.014 87.1266 71.1327C86.9994 71.2513 86.8372 71.3286 86.6627 71.3537C86.5021 71.3501 86.344 71.3149 86.1979 71.2502C86.0519 71.1855 85.9209 71.0927 85.8131 70.9774C85.2457 70.4147 84.8764 69.6926 84.7578 68.9142C84.6774 68.541 84.6876 68.1548 84.7875 67.786C84.9014 67.4366 85.1766 67.1672 85.4499 67.2336C85.6296 66.8653 85.2748 66.3767 84.9552 66.4198C84.6346 66.463 84.3835 66.7962 84.1204 67.0522C83.8582 67.3082 83.4913 67.4941 83.2273 67.2399C83.2303 67.2883 83.223 67.3367 83.2059 67.3822C83.1887 67.4277 83.162 67.4693 83.1274 67.5043C83.0929 67.5393 83.0513 67.567 83.0051 67.5856C82.959 67.6043 82.9094 67.6135 82.8595 67.6127C82.6839 67.5638 82.5207 67.48 82.3805 67.3666C81.7755 67.001 81.0074 67.2435 80.5775 67.9351C80.8462 66.8267 81.24 65.5549 82.0654 65.2944C82.4027 65.1875 82.7705 65.2755 83.0892 65.0905C83.6534 64.7627 83.7674 63.524 83.2801 63.0129C83.3421 63.4962 83.3301 64.0602 83.067 64.3908C82.8039 64.7213 82.2517 64.5058 82.285 64.0171C82.2775 64.0859 82.2478 64.1505 82.2001 64.2019C82.1524 64.2532 82.0891 64.2886 82.0194 64.3029C81.9497 64.3173 81.877 64.3099 81.8119 64.2818C81.7468 64.2537 81.6925 64.2063 81.6569 64.1465C81.4818 63.8878 81.4966 63.4648 81.6207 63.1558C81.7487 62.8759 81.9323 62.6232 82.1609 62.412C82.601 61.9549 83.0475 61.4923 83.5571 61.2048C84.0676 60.9174 84.6568 60.8204 85.1682 61.1061C85.4379 61.2569 85.675 61.5084 85.9502 61.6414C86.0161 61.681 86.0896 61.7075 86.1662 61.7191C86.2429 61.7307 86.3212 61.7273 86.3964 61.709C86.4717 61.6907 86.5424 61.658 86.6044 61.6128C86.6663 61.5675 86.7183 61.5106 86.7572 61.4456C86.9619 61.0971 86.8656 60.5797 86.9415 60.1441C87.0777 59.3743 87.8717 59.0141 88.3118 59.5225C87.9829 59.4408 87.6429 59.818 87.6021 60.2752C87.5604 60.7324 87.7985 61.1941 88.1172 61.3324C88.6528 61.5623 89.1771 60.9839 89.582 60.4486C90.0045 59.8881 90.4276 59.3279 90.8513 58.768C90.9189 58.6727 90.9949 58.5831 91.0783 58.5003C91.211 58.3749 91.3879 58.3031 91.5732 58.2995C91.7584 58.2958 91.9382 58.3605 92.0761 58.4806C92.5041 58.8192 92.7052 59.5135 93.0563 59.9914C93.5659 60.6857 94.3284 60.8545 95.0381 60.9893C95.5671 61.089 96.0964 61.1893 96.6261 61.2902C96.9791 61.927 97.2871 62.5863 97.5479 63.2636C96.5767 63.6929 95.7529 64.3834 95.1743 65.2531Z" fill="#B7DE6A"/>
<path d="M98.0577 64.8274C97.9492 65.1376 97.8898 65.4619 97.8817 65.7894C97.4277 65.2522 97.3554 64.2454 97.6538 63.5483C97.8066 63.9669 97.9413 64.3933 98.0577 64.8274Z" fill="#B7DE6A"/>
<path d="M96.8848 76.0598C96.4878 76.8412 96.0262 77.59 95.5043 78.299C95.1708 78.1607 94.8122 78.4077 94.5 78.6394C94.1738 78.882 93.782 79.1182 93.4475 78.8972C93.1056 78.6709 92.9954 78.0377 93.1038 77.5355C93.2284 77.0724 93.4462 76.6377 93.7449 76.2565C94.0228 75.8541 94.3202 75.4364 94.7066 75.2801C95.0939 75.1239 95.5914 75.3448 95.7044 75.8784L95.9786 75.8694C95.8248 75.6646 95.9055 75.2406 96.1121 75.1661C96.3502 75.0789 96.5568 75.396 96.6976 75.6762C96.7606 75.8029 96.8245 75.9304 96.8848 76.0598Z" fill="#B7DE6A"/>
<path d="M86.3817 72.266C85.7923 72.3019 85.3254 71.5984 85.0151 70.9063C84.7048 70.2142 84.4217 69.4228 83.8899 69.0705C83.586 68.8692 83.2395 68.8416 82.9098 68.744C82.7229 68.6983 82.5499 68.6099 82.4051 68.4864C82.2604 68.3628 82.1481 68.2076 82.0776 68.0336L81.7037 67.8872C81.1806 68.1407 80.7016 68.4718 80.284 68.8686C79.8067 69.3601 79.5095 69.9901 79.4381 70.6615C79.3666 71.3871 79.6304 72.1962 80.1232 72.4688C80.5127 72.6842 80.9661 72.5484 81.3605 72.7456C81.8534 72.9919 82.146 73.7075 82.2567 74.4141C82.3675 75.1207 82.3394 75.855 82.4186 76.5696C82.4979 77.2842 82.7163 78.0277 83.1683 78.3939C83.7338 78.8522 84.5638 78.4714 84.8175 77.6372C84.942 77.228 84.9377 76.7663 85.0308 76.3416C85.1947 75.5936 85.6371 75.0386 85.988 74.425C86.3389 73.8114 86.6151 72.9781 86.3817 72.266Z" fill="#B7DE6A"/>
<path d="M80.5569 64.9152C80.6119 64.9642 80.6632 65.017 80.7104 65.0732C80.7593 65.1549 80.7843 65.248 80.7826 65.3424C80.7809 65.4369 80.7527 65.5291 80.701 65.6091C80.772 65.6052 80.8414 65.5871 80.9048 65.5558C80.9682 65.5246 81.0242 65.4809 81.0693 65.4276C81.1769 65.3089 81.2716 65.1796 81.3517 65.042C81.3895 64.9948 81.4164 64.9405 81.4307 64.8825C81.4451 64.8244 81.4465 64.7641 81.435 64.7055C81.4072 64.6285 81.3413 64.5956 81.2951 64.5377C81.2312 64.4244 81.1875 64.3014 81.166 64.1739C81.1404 64.0545 81.0809 63.9443 80.9943 63.8557C80.9076 63.7672 80.7973 63.7039 80.6755 63.6729L80.7051 63.6783C80.6548 63.7073 80.6151 63.7507 80.5916 63.8026C80.568 63.8545 80.5618 63.9122 80.5738 63.9677C80.5917 64.0798 80.666 64.1728 80.6586 64.2872C80.648 64.4515 80.4785 64.5287 80.4681 64.6931C80.4664 64.7756 80.4983 64.8553 80.5569 64.9152Z" fill="#B7DE6A"/>
<path d="M79.5471 62.1221L79.5496 62.1217C79.5674 62.1057 79.584 62.0883 79.599 62.0698L79.5471 62.1221Z" fill="#B7DE6A"/>
<path d="M79.7236 62.8935C79.7944 62.8333 79.8468 62.7554 79.875 62.6682C79.9033 62.5811 79.9062 62.4882 79.8837 62.3995C79.8408 62.2126 79.6893 62.0869 79.5495 62.1214C79.5089 62.1613 79.4586 62.1905 79.4032 62.2063C79.3478 62.2221 79.2892 62.224 79.2328 62.2118C79.1464 62.1903 79.0515 62.1347 78.9765 62.1978C78.9337 62.245 78.9037 62.3018 78.8893 62.3631C78.8615 62.4456 78.8338 62.5282 78.806 62.6108C78.7928 62.6403 78.7894 62.6731 78.7962 62.7046C78.8015 62.7173 78.8101 62.7284 78.8211 62.7369C78.8321 62.7453 78.8452 62.7509 78.8591 62.7531C79.0255 62.8007 79.192 62.8483 79.3585 62.8958C79.4158 62.9215 79.4782 62.9345 79.5413 62.9341C79.6044 62.9337 79.6667 62.9199 79.7236 62.8935Z" fill="#B7DE6A"/>
<path d="M92.2908 73.5467C92.2138 73.4246 92.1369 73.3025 92.0599 73.1803C91.9844 73.0389 91.881 72.9131 91.7557 72.81C91.7282 72.7877 91.6963 72.7709 91.662 72.7606C91.6276 72.7503 91.5915 72.7469 91.5558 72.7503C91.52 72.7538 91.4853 72.7642 91.4538 72.7808C91.4222 72.7975 91.3944 72.8201 91.372 72.8473L91.3814 72.9171C91.5874 73.1312 91.7278 73.3968 91.7868 73.684C91.8044 73.8088 91.7983 73.938 91.8137 74.0634C91.8153 74.1215 91.8287 74.1788 91.8532 74.2318C91.8776 74.2849 91.9127 74.3328 91.9562 74.3728C92.0774 74.4513 92.2197 74.3356 92.3059 74.1944C92.383 74.0784 92.4176 73.9407 92.4041 73.8033C92.3849 73.7112 92.3463 73.6238 92.2908 73.5467Z" fill="#B7DE6A"/>
<path d="M93.4979 73.7051C93.5125 73.5907 93.5029 73.4747 93.4697 73.3641C93.4642 73.2144 93.5051 73.0666 93.5872 72.9397C93.6687 72.82 93.7305 72.6887 93.7703 72.5506C93.787 72.4876 93.784 72.4212 93.7615 72.36C93.736 72.3045 93.6743 72.2792 93.6389 72.3231L93.7147 72.3704C93.6124 72.3527 93.5073 72.3577 93.4073 72.3848C93.3503 72.406 93.2993 72.4402 93.2588 72.4845C93.2182 72.5288 93.1893 72.582 93.1744 72.6394C93.1619 72.729 93.1415 72.8173 93.1133 72.9035C93.0682 72.9935 92.9807 73.0235 92.9258 73.1025C92.8883 73.1725 92.8694 73.2505 92.8707 73.3294C92.8721 73.4083 92.8936 73.4856 92.9335 73.5544C93.0025 73.667 93.1122 73.7506 93.2413 73.7891C93.3338 73.8213 93.4556 73.823 93.4979 73.7051Z" fill="#B7DE6A"/>
<path d="M95.6476 74.3347C95.681 74.4191 95.7258 74.4988 95.7808 74.5717C95.8837 74.6722 96.0236 74.6105 96.1484 74.586C96.2617 74.5687 96.3777 74.5814 96.4842 74.6228C96.5906 74.6642 96.6836 74.7327 96.7531 74.8212C96.7047 74.5871 96.599 74.3677 96.445 74.1813C96.2909 73.995 96.093 73.8473 95.8679 73.7505C95.5753 73.6523 95.267 73.6056 94.9575 73.6125L94.9047 73.6256C95.0394 74.0058 95.4624 73.9973 95.6476 74.3347Z" fill="#B7DE6A"/>
<path d="M86.5428 75.1127L86.5435 75.1144L86.5584 75.0854L86.5428 75.1127Z" fill="#B7DE6A"/>
<path d="M86.2169 75.7241C86.1458 75.8492 86.0846 75.9795 86.0339 76.1137C85.9668 76.3311 85.9224 76.5544 85.9013 76.7804C85.8848 76.9089 85.8797 77.073 85.9627 77.1356C85.9865 77.151 86.0153 77.1574 86.0437 77.1536C86.072 77.1499 86.098 77.1363 86.1168 77.1153C86.1629 77.068 86.2006 77.0136 86.2285 76.9544C86.3917 76.6819 86.5184 76.3903 86.6055 76.0868C86.6965 75.7647 86.6748 75.4226 86.5438 75.1138C86.4348 75.3172 86.3258 75.5206 86.2169 75.7241Z" fill="#B7DE6A"/>
<path d="M83.0707 59.4203C83.1225 59.4693 83.188 59.5027 83.2591 59.5161C83.3302 59.5296 83.4038 59.5226 83.4708 59.496C83.6097 59.4371 83.737 59.3556 83.8473 59.2549C83.9387 59.1893 84.0162 59.1074 84.0756 59.0135C84.1083 58.9574 84.1292 58.8955 84.1373 58.8316C84.1453 58.7676 84.1402 58.7027 84.1222 58.6406C84.0967 58.5811 84.056 58.5289 84.0039 58.489C83.9518 58.449 83.89 58.4226 83.8244 58.4122C83.6397 58.3591 83.4549 58.306 83.2701 58.2528L83.4038 58.136C83.2663 58.0645 83.1141 58.1973 83.0282 58.3617C82.9731 58.469 82.9346 58.5837 82.9142 58.702C82.8849 58.8255 82.8838 58.9538 82.9108 59.0778C82.9379 59.2019 82.9924 59.3187 83.0707 59.4203Z" fill="#B7DE6A"/>
<path d="M86.3326 58.3584C86.3846 58.4141 86.4566 58.4484 86.5339 58.4545C86.6111 58.4606 86.6879 58.438 86.7486 58.3912C86.8008 58.3532 86.8442 58.3049 86.8759 58.2496C86.9076 58.1942 86.9269 58.133 86.9326 58.0699C86.9457 57.929 86.8738 57.7724 86.7712 57.7602L86.7946 57.6283C86.5969 57.5937 86.3536 57.5868 86.2477 57.8195C86.2119 57.9087 86.201 58.0054 86.2159 58.1C86.2308 58.1945 86.271 58.2836 86.3326 58.3584Z" fill="#B7DE6A"/>
<path d="M115.817 48.7445H48.024C47.9776 48.7435 47.9333 48.7249 47.9008 48.6927C47.8684 48.6605 47.8502 48.6172 47.8502 48.5722C47.8502 48.5271 47.8684 48.4839 47.9008 48.4517C47.9333 48.4195 47.9776 48.4009 48.024 48.3999H115.817C115.863 48.4009 115.907 48.4195 115.94 48.4517C115.972 48.4839 115.99 48.5271 115.99 48.5722C115.99 48.6172 115.972 48.6605 115.94 48.6927C115.907 48.7249 115.863 48.7435 115.817 48.7445Z" fill="#BEC5C9"/>
<path d="M51.9368 46.3334C52.9929 46.3334 53.8491 45.4849 53.8491 44.4382C53.8491 43.3915 52.9929 42.543 51.9368 42.543C50.8807 42.543 50.0246 43.3915 50.0246 44.4382C50.0246 45.4849 50.8807 46.3334 51.9368 46.3334Z" fill="#3F3D56"/>
<path d="M58.5427 46.3334C59.5988 46.3334 60.455 45.4849 60.455 44.4382C60.455 43.3915 59.5988 42.543 58.5427 42.543C57.4866 42.543 56.6305 43.3915 56.6305 44.4382C56.6305 45.4849 57.4866 46.3334 58.5427 46.3334Z" fill="#3F3D56"/>
<path d="M65.1487 46.3334C66.2048 46.3334 67.0609 45.4849 67.0609 44.4382C67.0609 43.3915 66.2048 42.543 65.1487 42.543C64.0926 42.543 63.2365 43.3915 63.2365 44.4382C63.2365 45.4849 64.0926 46.3334 65.1487 46.3334Z" fill="#3F3D56"/>
<path d="M111.858 43.0127H107.165C107.072 43.0145 106.984 43.0516 106.919 43.116C106.853 43.1804 106.817 43.267 106.817 43.3572C106.817 43.4474 106.853 43.5339 106.919 43.5984C106.984 43.6628 107.072 43.6998 107.165 43.7016H111.858C111.951 43.6998 112.039 43.6628 112.105 43.5984C112.17 43.5339 112.206 43.4474 112.206 43.3572C112.206 43.267 112.17 43.1804 112.105 43.116C112.039 43.0516 111.951 43.0145 111.858 43.0127Z" fill="#3F3D56"/>
<path d="M111.858 44.3057H107.165C107.072 44.3075 106.984 44.3445 106.919 44.4089C106.853 44.4733 106.817 44.5599 106.817 44.6501C106.817 44.7403 106.853 44.8269 106.919 44.8913C106.984 44.9557 107.072 44.9928 107.165 44.9946H111.858C111.951 44.9928 112.039 44.9557 112.105 44.8913C112.17 44.8269 112.206 44.7403 112.206 44.6501C112.206 44.5599 112.17 44.4733 112.105 44.4089C112.039 44.3445 111.951 44.3075 111.858 44.3057Z" fill="#3F3D56"/>
<path d="M111.858 45.5967H107.165C107.072 45.5985 106.984 45.6355 106.919 45.7C106.853 45.7644 106.817 45.851 106.817 45.9411C106.817 46.0313 106.853 46.1179 106.919 46.1823C106.984 46.2467 107.072 46.2838 107.165 46.2856H111.858C111.951 46.2838 112.039 46.2467 112.105 46.1823C112.17 46.1179 112.206 46.0313 112.206 45.9411C112.206 45.851 112.17 45.7644 112.105 45.7C112.039 45.6355 111.951 45.5985 111.858 45.5967Z" fill="#3F3D56"/>
<g opacity="0.35">
<path d="M117.612 69.7149C118.704 69.2537 116.491 68.9852 113.98 68.8969C111.47 68.8086 108.433 68.8135 106.828 68.5624C105.277 68.3196 105.391 67.8878 105.26 67.4966C105.13 67.1053 104.533 66.7042 102.112 66.6172C99.0952 66.5089 94.1198 66.926 91.8422 66.6756C89.7168 66.4419 90.9802 65.7088 87.8809 65.6808C86.1112 65.6647 83.8313 65.9064 81.8621 65.9647C80.4662 66.0234 79.0678 65.9528 77.6858 65.7536C76.726 65.6012 76.0575 65.4079 74.9772 65.2733C72.1412 64.9197 66.5926 65.0385 61.6402 65.4917C56.6878 65.9448 52.4427 66.6873 50.0486 67.4228C47.6545 68.1583 46.9931 68.8824 47.5508 69.4965C47.9069 69.8886 48.8181 70.2552 51.0286 70.4128C55.1633 70.7075 62.5246 70.2002 66.797 70.4684C69.1782 70.6178 70.2346 70.9883 72.3239 71.1911C74.5684 71.4089 77.8543 71.4204 81.0826 71.4153C87.8044 71.4045 94.6981 71.3375 101.728 71.2148C104.664 71.1635 107.74 71.0968 110.864 70.8524C113.989 70.608 117.175 70.1364 117.835 69.6943" fill="white"/>
</g>
</svg>
