<svg width="236" height="13" viewBox="0 0 236 13" fill="none" xmlns="http://www.w3.org/2000/svg">
<path d="M235.833 2.37519C222.258 2.37519 208.683 2.32004 195.118 2.39357C186.823 2.44259 178.529 2.63866 170.244 2.85925C162.629 3.06147 155.014 3.30044 147.409 3.66197C135.075 4.25022 122.722 4.78334 110.438 5.62895C77.5348 7.88391 44.6715 10.2921 11.7884 12.6267C9.40444 12.7982 6.90226 13.1904 4.65621 12.8902C2.97167 12.6635 0.91277 11.6708 0.272447 10.7026C-0.722516 9.19522 1.14925 8.4599 3.59233 8.31896C17.4824 7.49786 31.3725 6.63388 45.2724 5.82504C71.1907 4.31152 97.0992 2.74896 123.037 1.36412C134.504 0.751354 146.03 0.37758 157.536 0.187624C161.427 0.126348 165.318 0.0773345 169.219 0.00380318C172.569 -0.057473 176.046 0.647197 179.257 0.285668C184.045 -0.253562 188.685 0.94745 193.217 0.457241C199.305 -0.198414 205.146 0.763615 211.106 0.757488C217.372 0.745233 223.647 0.757495 229.912 0.880048C231.951 0.922941 233.971 1.33962 236 1.59085C235.951 1.84821 235.901 2.1117 235.852 2.37519H235.833Z" fill="#212427"/>
</svg>

