<svg width="20" height="15" viewBox="0 0 20 15" fill="none" xmlns="http://www.w3.org/2000/svg">
<path d="M2.20697 5.99997L1.49997 6.70697L0.792969 5.99997L1.49997 5.29297L2.20697 5.99997ZM19.207 14C19.207 14.2652 19.1016 14.5195 18.9141 14.7071C18.7265 14.8946 18.4722 15 18.207 15C17.9418 15 17.6874 14.8946 17.4999 14.7071C17.3123 14.5195 17.207 14.2652 17.207 14H19.207ZM6.49997 11.707L1.49997 6.70697L2.91397 5.29297L7.91397 10.293L6.49997 11.707ZM1.49997 5.29297L6.49997 0.292969L7.91397 1.70697L2.91397 6.70697L1.49997 5.29297ZM2.20697 4.99997H12.207V6.99997H2.20697V4.99997ZM19.207 12V14H17.207V12H19.207ZM12.207 4.99997C14.0635 4.99997 15.844 5.73747 17.1567 7.05022C18.4695 8.36298 19.207 10.1435 19.207 12H17.207C17.207 10.6739 16.6802 9.40212 15.7425 8.46443C14.8048 7.52675 13.5331 6.99997 12.207 6.99997V4.99997Z" fill="black"/>
</svg>
