<svg width="auto" height="261" viewBox="0 0 538 261" fill="none" xmlns="http://www.w3.org/2000/svg">
<path d="M73.1978 208.173H477.814V3.33789H73.1978V208.173Z" fill="white"/>
<path d="M481.151 211.511H69.8594V0H481.151V211.511ZM76.5348 204.835H474.476V6.67546H76.5348V204.835Z" fill="#F5F5F5"/>
<path d="M262.041 46.6719V116.195H160.977L142.306 138.597L144.438 116.195H135.354V46.6719H262.041Z" fill="#518DED"/>
<path d="M323.202 50.7969V95.3725H388L399.971 109.735L398.604 95.3725H404.428V50.7969H323.202Z" fill="#BEC5C9"/>
<path d="M55.7804 253.804H61.6265L64.4078 231.255H55.7798L55.7804 253.804Z" fill="#FFB6B6"/>
<path d="M54.2891 251.895L65.8021 251.895C67.7479 251.895 69.6145 252.668 70.9904 254.044C72.3663 255.419 73.1393 257.286 73.1395 259.231V259.47L54.2894 259.471L54.2891 251.895Z" fill="#212427"/>
<path d="M126.016 253.612L131.693 252.214L129.005 229.654L120.627 231.716L126.016 253.612Z" fill="#FFB6B6"/>
<path d="M124.112 252.115L135.291 249.364C137.181 248.899 139.178 249.204 140.843 250.211C142.508 251.218 143.704 252.846 144.169 254.735L144.226 254.967L125.922 259.471L124.112 252.115Z" fill="#212427"/>
<path d="M52.1851 248.427L53.3995 242.213C53.3995 242.213 55.6349 218.222 71.678 194.279L76.9 168.27C76.9 168.27 75.3491 148.582 90.3176 137.925L94.9323 134.746L111.112 135.673L114.849 156.132L122.378 204.539C122.378 204.539 124.321 204.721 125.05 210.318C126.531 212.669 127.407 215.35 127.6 218.121C127.6 218.121 131.453 228.751 132.486 236.578L132.364 244.236L124.228 248.571L107.269 200.611L95.1394 173.799C95.1394 173.799 89.3014 192.69 80.3594 208.873C80.3594 208.873 68.1119 235.383 65.6651 240.768L62.9933 249.583L52.1851 248.427Z" fill="#212427"/>
<path d="M106.282 93.5793C112.669 93.5793 117.846 88.4017 117.846 82.0148C117.846 75.6278 112.669 70.4502 106.282 70.4502C99.8949 70.4502 94.7173 75.6278 94.7173 82.0148C94.7173 88.4017 99.8949 93.5793 106.282 93.5793Z" fill="#FFB6B6"/>
<path d="M106.282 93.5793C112.669 93.5793 117.846 88.4017 117.846 82.0148C117.846 75.6278 112.669 70.4502 106.282 70.4502C99.8949 70.4502 94.7173 75.6278 94.7173 82.0148C94.7173 88.4017 99.8949 93.5793 106.282 93.5793Z" fill="#FFB6B6"/>
<path d="M90.3516 138.049L94.1692 128.513C91.4719 119.776 91.6373 110.406 94.6411 101.771L95.3714 101.169C101.734 95.9289 107.319 96.8829 112.502 103.293C113.336 104.335 114.312 105.255 115.402 106.027C117.687 107.631 121.314 116.343 116.526 121.451L112.695 143.794C113.099 156.131 104.147 151.486 90.3516 138.049Z" fill="#3F3D56"/>
<path d="M145.091 125.079C144.597 124.705 144.028 124.445 143.422 124.315C142.817 124.186 142.191 124.191 141.587 124.33C140.984 124.468 140.419 124.738 139.931 125.119C139.443 125.5 139.045 125.983 138.764 126.535L129.118 125.784L127.231 131.534L140.869 132.404C141.827 132.814 142.902 132.859 143.891 132.529C144.879 132.2 145.713 131.519 146.233 130.616C146.754 129.714 146.925 128.651 146.714 127.63C146.504 126.61 145.926 125.702 145.091 125.079Z" fill="#FFB6B6"/>
<path d="M135.855 134.407L108.368 129.275L99.428 114.286C98.8535 112.693 98.9353 110.938 99.6554 109.405C100.375 107.873 101.675 106.689 103.267 106.115C104.86 105.541 106.616 105.622 108.148 106.342C109.681 107.062 110.864 108.362 111.439 109.954L115.632 121.55L137.37 125.148L135.855 134.407Z" fill="#3F3D56"/>
<path d="M85.668 79.4825C91.7955 79.4825 96.7628 74.5152 96.7628 68.3877C96.7628 62.2603 91.7955 57.293 85.668 57.293C79.5405 57.293 74.5732 62.2603 74.5732 68.3877C74.5732 74.5152 79.5405 79.4825 85.668 79.4825Z" fill="#212427"/>
<path d="M76.0982 77.5748C77.5343 78.6127 79.1979 79.2916 80.9501 79.5547C82.7023 79.8178 84.492 79.6574 86.1695 79.087C87.847 78.5167 89.3635 77.5528 90.5921 76.2762C91.8208 74.9995 92.7258 73.4472 93.2315 71.7491C93.0401 73.2709 92.5354 74.7365 91.749 76.0533C90.9627 77.3702 89.9118 78.5097 88.6628 79.3999C87.4139 80.2901 85.9939 80.9118 84.4926 81.2255C82.9912 81.5393 81.4412 81.5383 79.9402 81.2228C78.4392 80.9073 77.02 80.284 75.7721 79.3923C74.5242 78.5005 73.4747 77.3598 72.6899 76.042C71.9051 74.7242 71.4021 73.258 71.2125 71.736C71.0229 70.214 71.151 68.6692 71.5886 67.1992C71.3401 69.1742 71.6276 71.1796 72.4211 73.0052C73.2145 74.8308 74.4847 76.4092 76.0982 77.5748Z" fill="#212427"/>
<path d="M119.883 77.5871C117.947 74.1196 117.205 72.6711 114.708 70.5625C112.5 68.6977 109.783 68.1501 107.592 69.917C105 68.7972 102.116 68.5432 99.3685 69.193C96.6208 69.8427 94.1559 71.3615 92.34 73.5236C90.5242 75.6858 89.4542 78.3761 89.2891 81.1947C89.1239 84.0134 89.8724 86.8102 91.4233 89.1696C92.9743 91.5291 95.245 93.3253 97.898 94.2915C100.551 95.2576 103.445 95.3422 106.15 94.5327C108.855 93.7231 111.227 92.0627 112.913 89.7979C114.599 87.5331 115.51 84.7848 115.509 81.9613C115.507 81.4654 115.478 80.9701 115.42 80.4776C117.324 80.2101 117.979 77.8546 119.883 77.5871Z" fill="#212427"/>
<path d="M460.953 160.59C460.989 159.825 461.193 159.077 461.549 158.399C461.906 157.721 462.407 157.129 463.017 156.666C463.627 156.202 464.331 155.878 465.08 155.716C465.829 155.554 466.604 155.558 467.351 155.729L474.281 145.962L481.244 148.726L471.263 162.381C470.894 163.617 470.085 164.674 468.988 165.354C467.891 166.033 466.584 166.286 465.313 166.065C464.042 165.844 462.896 165.165 462.093 164.156C461.289 163.147 460.884 161.878 460.953 160.59Z" fill="#FFB6B6"/>
<path d="M468.555 152.19L480.876 131.467L475.856 118.08L482.694 99.8467L482.946 99.9549C483.111 100.026 486.996 101.759 487.572 107.968L495.429 132.662L474.459 159.866L468.555 152.19Z" fill="#B7DE6A"/>
<path d="M401.635 76.0043C402.395 76.0996 403.125 76.3604 403.774 76.7684C404.422 77.1764 404.973 77.7216 405.388 78.3656C405.803 79.0096 406.072 79.7368 406.176 80.4959C406.279 81.255 406.215 82.0276 405.988 82.7592L415.189 90.4239L411.895 97.1517L399.053 86.1452C397.849 85.6818 396.857 84.793 396.265 83.6471C395.673 82.5011 395.521 81.1778 395.84 79.9278C396.158 78.6778 396.924 77.588 397.992 76.8648C399.06 76.1417 400.356 75.8355 401.635 76.0043Z" fill="#FFB6B6"/>
<path d="M409.422 84.2334L429.13 98.1206L442.865 94.1505L460.515 102.377L460.388 102.62C460.305 102.779 458.276 106.519 452.041 106.613L426.814 112.537L401.312 89.5267L409.422 84.2334Z" fill="#B7DE6A"/>
<path d="M445.484 253.108H438.632L435.373 226.68L445.485 226.68L445.484 253.108Z" fill="#FFB6B6"/>
<path d="M433.739 251.149H446.953V259.469H425.419C425.419 258.377 425.634 257.295 426.052 256.285C426.47 255.276 427.083 254.359 427.856 253.586C428.628 252.814 429.546 252.201 430.555 251.783C431.564 251.365 432.646 251.149 433.739 251.149Z" fill="#212427"/>
<path d="M472.87 253.108H466.018L462.759 226.68L472.871 226.68L472.87 253.108Z" fill="#FFB6B6"/>
<path d="M461.124 251.149H474.338V259.469H452.804C452.804 258.377 453.019 257.295 453.437 256.285C453.855 255.276 454.468 254.359 455.241 253.586C456.013 252.814 456.93 252.201 457.94 251.783C458.949 251.365 460.031 251.149 461.124 251.149Z" fill="#212427"/>
<path d="M475.306 156.643L474.748 195.764L474.188 247.18L461.893 246.063L455.746 175.085L447.921 246.063H435.228L433.949 174.526L438.421 158.878L475.306 156.643Z" fill="#212427"/>
<path d="M437.195 159.117L435.322 159.036L444.023 111.107L440.46 96.6208C440.275 95.867 440.373 95.0716 440.735 94.3852C441.097 93.6987 441.699 93.169 442.425 92.8963L448.835 90.4929L451.099 84.2656L468.965 86.1908L469.404 91.0576C471.34 91.6785 487.283 96.988 486.183 103.038C485.097 109.009 478.687 127.796 478.361 128.748L477.239 155.691L477.101 155.76C476.934 155.843 464.62 161.898 451.242 161.897C446.416 161.977 441.627 161.03 437.195 159.117Z" fill="#B7DE6A"/>
<path d="M459.331 81.1831C466.436 81.1831 472.195 75.4239 472.195 68.3196C472.195 61.2153 466.436 55.4561 459.331 55.4561C452.227 55.4561 446.468 61.2153 446.468 68.3196C446.468 75.4239 452.227 81.1831 459.331 81.1831Z" fill="#FFB6B6"/>
<path d="M469.751 80.7715C467.299 83.3829 462.747 81.981 462.427 78.4136C462.402 78.1366 462.404 77.8578 462.433 77.5812C462.598 76.001 463.51 74.5663 463.292 72.8978C463.242 72.4825 463.088 72.0868 462.842 71.7481C460.889 69.1322 456.303 72.9181 454.459 70.55C453.329 69.0979 454.658 66.8117 453.79 65.1887C452.645 63.0467 449.254 64.1034 447.127 62.9303C444.761 61.6251 444.902 57.9945 446.46 55.7862C448.36 53.0931 451.69 51.6561 454.979 51.449C458.269 51.2419 461.535 52.131 464.606 53.3277C468.095 54.6874 471.555 56.5665 473.702 59.6344C476.313 63.3652 476.564 68.381 475.258 72.7435C474.464 75.3972 471.753 78.6391 469.751 80.7715Z" fill="#212427"/>
<path d="M330.381 249.554L332.292 244.638L314.242 234.928L311.421 242.183L330.381 249.554Z" fill="#FFB6B6"/>
<path d="M340.62 236.731C339.81 236.416 338.946 236.263 338.076 236.282C337.207 236.301 336.35 236.491 335.555 236.841C334.759 237.191 334.04 237.695 333.439 238.323C332.838 238.951 332.367 239.691 332.053 240.502L330.763 243.816L328.776 248.93L328.29 250.185L334.659 252.662L340.82 236.81L340.62 236.731Z" fill="#212427"/>
<path d="M328.777 240.094L327.946 242.298L325.871 247.8L325.821 247.937C320.537 248.616 314.743 247.285 309.385 245.217C307.241 244.39 305.141 243.453 303.094 242.41C300.063 240.879 297.35 239.263 295.185 237.88C291.926 235.789 289.911 234.218 289.911 234.218C289.911 234.218 289.379 234.699 288.416 235.524C287.124 236.629 285.061 238.354 282.448 240.385C281.451 241.165 280.38 241.981 279.236 242.833C270.804 249.087 259.983 232.398 259.983 232.398C259.983 232.398 263.027 230.461 263.822 230.085C266.382 228.873 272.396 226.015 277.585 223.476C280.258 222.165 282.709 220.936 284.355 220.063C290.182 216.961 297.426 222.831 297.426 222.831L328.777 240.094Z" fill="#212427"/>
<path opacity="0.14" d="M328.777 240.094L327.946 242.298L325.871 247.8L325.821 247.937C320.537 248.616 314.743 247.285 309.385 245.217C307.241 244.39 305.141 243.453 303.094 242.41C300.063 240.879 297.35 239.263 295.185 237.88C291.926 235.789 289.911 234.218 289.911 234.218C289.911 234.218 289.379 234.699 288.416 235.524C287.124 236.629 285.061 238.354 282.448 240.385C281.451 241.165 280.38 241.981 279.236 242.833C270.804 249.087 259.983 232.398 259.983 232.398C259.983 232.398 263.027 230.461 263.822 230.085C266.382 228.873 272.396 226.015 277.585 223.476C280.258 222.165 282.709 220.936 284.355 220.063C290.182 216.961 297.426 222.831 297.426 222.831L328.777 240.094Z" fill="#212427"/>
<path d="M244.435 193.828H219.485C218.971 193.827 218.479 193.623 218.116 193.26C217.754 192.897 217.549 192.405 217.549 191.892V181.138C217.549 177.316 219.067 173.65 221.77 170.947C224.472 168.245 228.138 166.727 231.96 166.727C235.782 166.727 239.448 168.245 242.15 170.947C244.853 173.65 246.371 177.316 246.371 181.138V191.892C246.37 192.405 246.166 192.897 245.803 193.26C245.441 193.623 244.948 193.827 244.435 193.828Z" fill="#212427"/>
<path d="M268.164 207.336C267.583 207.438 267.032 207.666 266.548 208.004C266.065 208.343 265.662 208.783 265.367 209.293C265.073 209.804 264.894 210.373 264.843 210.961C264.792 211.548 264.87 212.14 265.073 212.694L258.288 218.934L261.075 223.982L270.532 215.035C271.44 214.633 272.169 213.912 272.581 213.009C272.993 212.106 273.059 211.083 272.767 210.134C272.475 209.185 271.846 208.376 270.997 207.86C270.149 207.345 269.141 207.158 268.164 207.336Z" fill="#FFB6B6"/>
<path d="M247.748 235.708C247.442 235.708 247.135 235.694 246.827 235.668C244.997 235.515 243.236 234.9 241.709 233.88C240.181 232.86 238.938 231.469 238.096 229.837L227.226 208.916C226.514 207.545 226.358 205.952 226.79 204.469C227.222 202.986 228.209 201.727 229.546 200.953C230.883 200.179 232.467 199.951 233.968 200.315C235.47 200.679 236.773 201.608 237.606 202.908L247.634 225.408L261.279 214.322L269.18 217.397L255.837 232.128C254.812 233.253 253.563 234.153 252.17 234.77C250.777 235.386 249.271 235.706 247.748 235.708Z" fill="#FFA553"/>
<path d="M328.856 256.468L331.139 251.713L313.888 240.645L310.519 247.662L328.856 256.468Z" fill="#FFB6B6"/>
<path d="M340.05 244.469C339.266 244.092 338.416 243.873 337.548 243.826C336.68 243.778 335.811 243.901 334.991 244.189C334.171 244.477 333.415 244.924 332.768 245.504C332.121 246.084 331.594 246.786 331.218 247.57L329.678 250.775L327.303 255.722L326.723 256.935L332.883 259.895L340.243 244.563L340.05 244.469Z" fill="#212427"/>
<path d="M327.983 246.913L326.985 249.046L324.495 254.372L324.434 254.505C319.113 254.776 313.439 253.004 308.255 250.53C306.181 249.541 304.16 248.446 302.198 247.248C299.295 245.489 296.714 243.669 294.662 242.125C291.573 239.789 289.684 238.068 289.684 238.068C289.684 238.068 289.117 238.507 288.093 239.255C286.72 240.258 284.531 241.819 281.769 243.643C280.715 244.344 279.585 245.076 278.379 245.837C269.492 251.425 256.853 258.231 246.103 259.667C227.222 262.193 231.666 236.997 231.666 236.997L246.692 229.193L253.072 230.488L260.174 231.925L262.69 232.437C262.69 232.437 263.168 232.256 263.99 231.942C266.635 230.931 272.851 228.544 278.22 226.41C280.986 225.309 283.524 224.272 285.232 223.528C291.28 220.882 298.051 227.292 298.051 227.292L327.983 246.913Z" fill="#212427"/>
<path d="M204.169 260.269C204.744 260.137 205.283 259.881 205.748 259.518C206.213 259.156 206.593 258.695 206.861 258.17C207.129 257.645 207.278 257.067 207.299 256.478C207.319 255.888 207.21 255.302 206.979 254.759L213.432 248.176L210.388 243.279L201.406 252.703C200.52 253.151 199.829 253.909 199.465 254.832C199.1 255.756 199.087 256.781 199.427 257.713C199.768 258.646 200.439 259.421 201.313 259.892C202.187 260.363 203.203 260.497 204.169 260.269Z" fill="#FFB6B6"/>
<path d="M235.493 194.308C241.049 194.308 245.553 189.804 245.553 184.248C245.553 178.692 241.049 174.188 235.493 174.188C229.937 174.188 225.433 178.692 225.433 184.248C225.433 189.804 229.937 194.308 235.493 194.308Z" fill="#FFB6B6"/>
<path d="M222.404 212.174L231.168 237.02L231.115 237.107C229.896 239.122 229.498 240.747 229.963 241.807C230.086 242.076 230.266 242.316 230.49 242.509C230.714 242.703 230.977 242.845 231.262 242.927L252 228.431L251.274 222.621L251.315 222.557C253.319 219.349 253.968 216.445 253.244 213.924C252.588 211.884 251.171 210.176 249.288 209.153L249.216 209.096L238.872 196.507L225.046 198.963L222.404 212.174Z" fill="#FFA553"/>
<path d="M209.077 255.783L203.207 248.558L217.359 225.195L223.958 204.798C224.318 203.684 224.913 202.66 225.703 201.795C226.493 200.931 227.459 200.245 228.536 199.785C229.613 199.325 230.776 199.102 231.946 199.129C233.117 199.157 234.268 199.435 235.323 199.945C236.377 200.455 237.309 201.186 238.057 202.087C238.805 202.988 239.352 204.039 239.659 205.168C239.967 206.298 240.029 207.481 239.84 208.637C239.652 209.793 239.218 210.895 238.568 211.869L226.454 230.018L209.077 255.783Z" fill="#FFA553"/>
<path d="M249.781 182.213H234.524L234.367 180.022L233.585 182.213H231.236L230.926 177.871L229.376 182.213H224.83V181.997C224.833 178.975 226.036 176.078 228.173 173.94C230.31 171.803 233.207 170.601 236.23 170.598H238.381C241.403 170.601 244.301 171.803 246.438 173.94C248.575 176.078 249.777 178.975 249.781 181.997V182.213Z" fill="#212427"/>
<path d="M234.399 195.835C234.284 195.835 234.169 195.825 234.056 195.805L222.885 193.834V175.37H235.183L234.878 175.725C230.642 180.665 233.833 188.676 236.113 193.012C236.281 193.329 236.356 193.688 236.329 194.046C236.302 194.404 236.175 194.748 235.961 195.037C235.782 195.284 235.548 195.485 235.276 195.624C235.005 195.762 234.704 195.835 234.399 195.835Z" fill="#212427"/>
<path d="M397.456 151.793V177.804H282.227L265.588 197.768L267.488 177.804H259.393V151.793H397.456Z" fill="#BEC5C9"/>
<path d="M537.411 259.986H0.589266C0.432983 259.986 0.2831 259.924 0.172592 259.814C0.0620828 259.703 0 259.553 0 259.397C0 259.241 0.0620828 259.091 0.172592 258.98C0.2831 258.87 0.432983 258.808 0.589266 258.808H537.411C537.567 258.808 537.717 258.87 537.827 258.98C537.938 259.091 538 259.241 538 259.397C538 259.553 537.938 259.703 537.827 259.814C537.717 259.924 537.567 259.986 537.411 259.986Z" fill="#BEC5C9"/>
</svg>
