<svg width="auto" height="314" viewBox="0 0 260 314" fill="none" xmlns="http://www.w3.org/2000/svg">
<path d="M1.85943 149.815C2.81476 151.41 4.10829 152.777 5.6489 153.818C7.18951 154.86 8.93974 155.551 10.7763 155.843C12.6128 156.135 14.491 156.02 16.2786 155.508C18.0662 154.995 19.7196 154.097 21.1225 152.876L60.3341 175.366L58.8727 151.921L21.8608 134.159C19.6539 131.938 16.709 130.604 13.5842 130.41C10.4594 130.215 7.37174 131.173 4.90632 133.103C2.44089 135.033 0.76899 137.8 0.207431 140.88C-0.354128 143.96 0.233667 147.139 1.85943 149.815Z" fill="#FFB6B6"/>
<path d="M115.381 239.906C103.749 256.186 104.166 283.422 107.411 313.231H162.405L164.796 307.652L167.984 313.231H219.79C219.79 313.231 215.805 237.515 208.631 235.124C201.458 232.733 115.381 239.906 115.381 239.906Z" fill="#212427"/>
<path d="M162.405 69.8173C177.811 69.8173 190.3 57.3281 190.3 41.9218C190.3 26.5156 177.811 14.0264 162.405 14.0264C146.998 14.0264 134.509 26.5156 134.509 41.9218C134.509 57.3281 146.998 69.8173 162.405 69.8173Z" fill="#FFB6B6"/>
<path d="M182.567 77.0547L188.022 87.5103L225.753 104.33L215.835 200.311L211.66 210.25L213.916 218.882L208.478 225.252C213.936 230.19 214.63 235.36 211.66 240.708L194.285 244.688C194.285 244.688 97.6747 253.279 105.817 238.312C114.713 221.958 116.978 173.662 97.339 147.854C80.6658 125.943 93.4665 97.5113 93.4665 97.5113L133.016 85.6919L147.563 77.0547L182.567 77.0547Z" fill="#3F3D56"/>
<path d="M174.789 1.05926C174.92 0.781901 175.131 0.550059 175.395 0.393503C175.659 0.236947 175.963 0.162823 176.269 0.180656C163.498 -0.583273 150.047 0.905231 139.362 7.94295C136.774 9.64797 134.333 11.6816 131.517 12.9185C131.384 12.9782 131.268 13.0713 131.182 13.1888C131.096 13.3062 131.041 13.4439 131.024 13.5887C131.007 13.7334 131.027 13.8801 131.083 14.0146C131.139 14.1491 131.229 14.2669 131.344 14.3564L131.653 14.599C131.775 14.6947 131.869 14.8221 131.924 14.9672C131.978 15.1123 131.992 15.2697 131.964 15.4222C131.935 15.5747 131.866 15.7164 131.762 15.832C131.659 15.9476 131.526 16.0327 131.377 16.0779C131.223 16.1251 131.085 16.2154 130.98 16.3384C130.875 16.4613 130.807 16.6117 130.785 16.7719C130.762 16.932 130.786 17.0952 130.853 17.2422C130.921 17.3893 131.028 17.514 131.164 17.6018L133.535 19.1341C133.654 19.2099 133.753 19.3145 133.821 19.4383C133.89 19.562 133.926 19.701 133.927 19.8425C133.928 19.9839 133.893 20.1233 133.826 20.2478C133.759 20.3723 133.661 20.4779 133.543 20.555C133.342 20.6791 133.131 20.786 132.912 20.8747C132.776 20.9258 132.656 21.0111 132.562 21.1224C132.469 21.2337 132.405 21.3673 132.378 21.5101C132.351 21.653 132.362 21.8004 132.408 21.9381C132.455 22.0759 132.536 22.1993 132.644 22.2965C133.671 23.2104 134.458 24.3617 134.938 25.6498C135.728 27.7044 135.87 29.9421 136.004 32.1394C136.82 28.969 140.28 27.1027 143.549 26.9131C146.817 26.7234 150.005 27.8018 153.186 28.5771C160.114 30.2606 167.309 30.5374 174.346 29.3911C171.957 34.1865 173.972 39.9063 176.001 44.8653L182.566 42.0511C191.584 36.9611 185.302 58.4927 181.931 61.4486C188.815 63.8349 206.83 37.349 201.035 27.3022C198.02 22.076 200.16 15.3355 194.233 10.3789C191.328 7.32078 185.528 8.68 182.566 6.13835C181.401 5.138 183.177 2.46169 181.576 1.87844C181.043 1.68471 174.877 0.864009 174.789 1.05926Z" fill="#212427"/>
<path d="M127.538 88.3926C122.419 111.118 109.291 164.178 95.9713 175.274C95.1266 176.072 94.1137 176.67 93.0073 177.024C46.1889 188.43 31.1874 159.336 31.1874 159.336C31.1874 159.336 43.7341 153.222 44.0523 141.271L69.3549 149.122L91.4117 99.4846L94.6575 96.457L94.6757 96.4389L127.538 88.3926Z" fill="#3F3D56"/>
<path d="M227.363 298.247C228.703 296.958 229.745 295.391 230.414 293.656C231.084 291.921 231.365 290.061 231.238 288.206C231.11 286.35 230.578 284.546 229.677 282.919C228.777 281.291 227.531 279.881 226.027 278.788L239.152 235.532L216.632 242.213L207.621 282.265C205.951 284.914 205.311 288.083 205.822 291.172C206.333 294.261 207.96 297.055 210.393 299.025C212.826 300.995 215.898 302.004 219.026 301.86C222.153 301.717 225.119 300.431 227.363 298.247Z" fill="#FFB6B6"/>
<path d="M215.35 101.91L225.753 104.33C225.753 104.33 268.75 187.988 258.389 203.928C248.028 219.868 235.334 272.642 235.334 272.642C235.334 272.642 216.561 268.91 209.387 259.346L222.523 196.755L208.974 144.152L215.35 101.91Z" fill="#3F3D56"/>
<path d="M17.9932 226.139L18.3667 91.4029C18.3774 88.6759 19.4693 86.0644 21.403 84.1414C23.3366 82.2185 25.9541 81.141 28.6812 81.1455L130.437 81.4276C133.164 81.4383 135.775 82.5302 137.698 84.4639C139.621 86.3975 140.699 89.015 140.694 91.7421L140.32 226.478C140.31 229.205 139.218 231.816 137.284 233.739C135.351 235.662 132.733 236.74 130.006 236.735L28.2506 236.453C25.5235 236.443 22.9121 235.351 20.9891 233.417C19.0661 231.483 17.9887 228.866 17.9932 226.139Z" fill="#BEC5C9"/>
<path d="M25.9114 185.465L26.1516 98.8447C26.1615 96.2907 27.1841 93.8449 28.9951 92.044C30.806 90.2431 33.2574 89.234 35.8114 89.2383L123.262 89.4807C125.816 89.4906 128.261 90.5132 130.062 92.3242C131.864 94.1351 132.873 96.5865 132.869 99.1405L132.536 219.037C132.526 221.591 131.503 224.037 129.692 225.838C127.881 227.639 125.43 228.648 122.876 228.643L68.7022 228.493C57.3259 228.449 46.4317 223.894 38.4096 215.827C30.3876 207.761 25.8928 196.842 25.9114 185.465Z" fill="white"/>
<path d="M113.241 127.287H45.0524C43.9673 127.287 42.9267 126.856 42.1594 126.089C41.3921 125.322 40.9611 124.281 40.9611 123.196C40.9611 122.111 41.3921 121.07 42.1594 120.303C42.9267 119.536 43.9673 119.104 45.0524 119.104H113.241C114.326 119.104 115.367 119.536 116.134 120.303C116.901 121.07 117.333 122.111 117.333 123.196C117.333 124.281 116.901 125.322 116.134 126.089C115.367 126.856 114.326 127.287 113.241 127.287Z" fill="#3F3D56"/>
<path d="M60.0539 108.422H45.0524C43.9673 108.422 42.9267 107.991 42.1594 107.224C41.3921 106.456 40.9611 105.416 40.9611 104.331C40.9611 103.245 41.3921 102.205 42.1594 101.438C42.9267 100.67 43.9673 100.239 45.0524 100.239H60.0539C61.139 100.239 62.1797 100.67 62.9469 101.438C63.7142 102.205 64.1453 103.245 64.1453 104.331C64.1453 105.416 63.7142 106.456 62.9469 107.224C62.1797 107.991 61.139 108.422 60.0539 108.422Z" fill="#3F3D56"/>
<path d="M113.241 146.152H45.0524C43.9673 146.152 42.9267 145.721 42.1594 144.954C41.3921 144.187 40.9611 143.146 40.9611 142.061C40.9611 140.976 41.3921 139.935 42.1594 139.168C42.9267 138.401 43.9673 137.97 45.0524 137.97H113.241C114.326 137.97 115.367 138.401 116.134 139.168C116.901 139.935 117.333 140.976 117.333 142.061C117.333 143.146 116.901 144.187 116.134 144.954C115.367 145.721 114.326 146.152 113.241 146.152Z" fill="#3F3D56"/>
<path d="M113.241 165.019H45.0524C43.9673 165.019 42.9267 164.588 42.1594 163.82C41.3921 163.053 40.9611 162.012 40.9611 160.927C40.9611 159.842 41.3921 158.802 42.1594 158.034C42.9267 157.267 43.9673 156.836 45.0524 156.836H113.241C114.326 156.836 115.367 157.267 116.134 158.034C116.901 158.802 117.333 159.842 117.333 160.927C117.333 162.012 116.901 163.053 116.134 163.82C115.367 164.588 114.326 165.019 113.241 165.019Z" fill="#3F3D56"/>
<path d="M107.724 214.728C116.715 214.728 124.003 207.439 124.003 198.448C124.003 189.457 116.715 182.169 107.724 182.169C98.7329 182.169 91.4443 189.457 91.4443 198.448C91.4443 207.439 98.7329 214.728 107.724 214.728Z" fill="#B7DE6A"/>
<path d="M105.503 206.921C105.222 206.921 104.945 206.856 104.693 206.73C104.442 206.604 104.223 206.421 104.054 206.197L99.6131 200.275C99.4701 200.085 99.3659 199.868 99.3067 199.638C99.2474 199.407 99.2342 199.167 99.2677 198.931C99.3012 198.696 99.3808 198.469 99.502 198.264C99.6232 198.06 99.7836 197.881 99.974 197.738C100.164 197.595 100.381 197.491 100.612 197.432C100.842 197.373 101.082 197.36 101.318 197.394C101.553 197.428 101.78 197.508 101.985 197.629C102.189 197.751 102.368 197.911 102.51 198.102L105.416 201.976L112.879 190.782C113.01 190.583 113.18 190.412 113.378 190.279C113.575 190.146 113.797 190.054 114.031 190.006C114.264 189.959 114.505 189.959 114.739 190.005C114.973 190.051 115.195 190.143 115.393 190.275C115.591 190.407 115.762 190.577 115.894 190.775C116.027 190.973 116.119 191.195 116.165 191.429C116.211 191.663 116.211 191.904 116.164 192.137C116.118 192.371 116.025 192.593 115.892 192.791L107.01 206.115C106.849 206.356 106.633 206.555 106.38 206.695C106.126 206.835 105.843 206.912 105.553 206.92C105.537 206.921 105.52 206.921 105.503 206.921Z" fill="white"/>
</svg>
