<svg width="auto" height="367" viewBox="0 0 554 367" fill="none" xmlns="http://www.w3.org/2000/svg">
<path d="M450.849 357.152H441.851L437.569 322.445H450.849L450.849 357.152Z" fill="#FFB6B6"/>
<path d="M453.143 365.875L424.129 365.873V365.506C424.13 362.512 425.319 359.639 427.437 357.522C429.555 355.404 432.427 354.214 435.422 354.214L453.143 354.215L453.143 365.875Z" fill="#212427"/>
<path d="M363.149 356.44L354.618 353.58L361.591 319.312L374.183 323.534L363.149 356.44Z" fill="#FFB6B6"/>
<path d="M362.553 365.439L335.044 356.216L335.161 355.868C336.113 353.028 338.154 350.683 340.835 349.349C343.517 348.014 346.618 347.799 349.458 348.751L366.26 354.384L362.553 365.439Z" fill="#212427"/>
<path d="M374.241 177.784L354.756 342.618L373.867 344.229C373.867 344.229 403.929 182.168 413.197 201.365C422.464 220.563 433.819 340.632 433.819 340.632H452.787C452.787 340.632 457.651 153.291 437.791 144.023L374.241 177.784Z" fill="#212427"/>
<path d="M424.747 41.9867C426.586 31.5451 419.613 21.5893 409.171 19.7498C398.73 17.9103 388.774 24.8836 386.934 35.3252C385.095 45.7668 392.068 55.7227 402.51 57.5622C412.951 59.4017 422.907 52.4284 424.747 41.9867Z" fill="#FFB6B6"/>
<path d="M394.432 64.917L418.925 66.9029C418.925 66.9029 438.453 67.2339 446.397 72.5297C454.341 77.8255 438.784 110.594 438.784 110.594C438.784 110.594 434.74 123.585 437.791 129.46C447.692 148.521 446.224 163.2 446.224 163.2C446.224 163.2 425.876 167.855 390.791 177.123C390.791 177.123 368.946 185.728 369.608 181.094C370.27 176.461 376.889 123.502 376.889 123.502V68.5578L394.432 64.917Z" fill="#FFA553"/>
<path d="M437.279 36.5754C436.299 31.1085 434.104 23.3533 429.213 17.4735C429.367 17.4744 429.521 17.4811 429.675 17.4767C431.356 17.4276 433.268 16.8975 433.962 15.3662C434.186 14.7528 434.242 14.0907 434.125 13.4484C434.007 12.8061 433.719 12.207 433.292 11.7131C432.425 10.7376 431.388 9.92756 430.232 9.3223C431.411 10.0384 433.079 10.7035 434.02 9.69485C434.262 9.39075 434.412 9.02397 434.453 8.63753C434.494 8.2511 434.424 7.861 434.251 7.51301C433.894 6.82261 433.392 6.21729 432.78 5.7382C430.797 3.98453 428.628 2.45378 426.311 1.17343C424.517 0.182405 422.158 -0.613405 420.547 0.654334C418.907 1.94582 419.171 4.46068 419.592 6.50542C418.674 5.96836 417.641 5.65669 416.578 5.596C416.048 5.58084 415.528 5.74922 415.107 6.07273C414.686 6.39624 414.389 6.8551 414.267 7.37188C414.252 7.77968 414.342 8.18451 414.529 8.54718C414.716 8.90985 414.994 9.21809 415.335 9.44201C409.005 8.40112 400.918 9.58218 390.578 14.3664C390.578 14.3664 380.552 17.7082 380.043 30.9056C379.991 33.0164 380.226 35.1244 380.739 37.1724C381.304 39.5648 383.313 51.3016 380.903 56.0449L392.977 60.3468L393.115 53.1147C383.732 39.5694 388.367 34.5988 392.021 26.4521C392.027 26.4372 392.037 26.4244 392.05 26.4149C392.063 26.4055 392.078 26.3999 392.094 26.3987C392.11 26.3975 392.126 26.4007 392.14 26.4081C392.154 26.4155 392.166 26.4267 392.174 26.4405C392.85 27.5991 395.437 31.5704 404.341 31.5704L400.9 28.1296C400.9 28.1296 416.04 34.323 421.545 34.323C421.545 34.323 425.674 37.0757 421.545 41.2046C417.416 45.3336 408.38 51.4109 413.197 58.9807C418.014 66.5505 417.599 69.2361 417.599 69.2361L428.61 63.0426C428.61 63.0426 435.335 49.7367 436.528 45.8184C437.508 42.8406 437.765 39.6724 437.279 36.5754Z" fill="#212427"/>
<path d="M304.976 185.76H524.016V307.167H496.193V340.554L466.22 307.167H304.976V185.76Z" fill="#518DED"/>
<path d="M488.099 221.424H340.893V228H488.099V221.424Z" fill="white"/>
<path d="M488.099 243.176H340.893V249.752H488.099V243.176Z" fill="white"/>
<path d="M488.099 264.927H340.893V271.503H488.099V264.927Z" fill="white"/>
<path d="M98.5347 83.752H277.737V183.079H254.975V210.393L230.453 183.079H98.5347V83.752Z" fill="#3F3D56"/>
<path d="M248.353 112.93H127.919V118.31H248.353V112.93Z" fill="white"/>
<path d="M248.353 130.726H127.919V136.106H248.353V130.726Z" fill="white"/>
<path d="M248.353 148.521H127.919V153.901H248.353V148.521Z" fill="white"/>
<path d="M448.797 107.968L435.949 111.091L435.852 137.092L421.402 186.966C420.245 187.881 419.361 189.095 418.846 190.476C418.33 191.858 418.203 193.354 418.478 194.803C418.753 196.252 419.419 197.597 420.405 198.694C421.391 199.791 422.658 200.597 424.069 201.024C425.48 201.451 426.982 201.484 428.41 201.119C429.839 200.753 431.14 200.003 432.172 198.95C433.205 197.897 433.929 196.582 434.267 195.147C434.605 193.711 434.543 192.211 434.088 190.808L451.362 139.177L448.797 107.968Z" fill="#FFB6B6"/>
<path d="M363.289 107.421L378.701 111.825L378.799 137.826L393.249 187.7C394.405 188.615 395.29 189.829 395.805 191.21C396.32 192.592 396.448 194.088 396.173 195.537C395.898 196.985 395.231 198.331 394.246 199.428C393.26 200.525 391.993 201.33 390.582 201.758C389.17 202.185 387.669 202.218 386.24 201.852C384.812 201.487 383.511 200.737 382.478 199.684C381.446 198.631 380.721 197.316 380.384 195.88C380.046 194.445 380.108 192.944 380.563 191.542L363.289 139.911V107.421Z" fill="#FFB6B6"/>
<path d="M429.517 69.8824L432.7 68.8442C434.488 68.2613 436.432 68.3963 438.122 69.2205C438.122 69.2205 447.39 69.8824 448.714 76.5022C450.038 83.122 453.258 140.983 453.258 140.983L433.628 134.737L429.517 69.8824Z" fill="#FFA553"/>
<path d="M384.833 69.8818L379.198 69.5984L377.413 68.7061C377.413 68.7061 366.96 69.8818 365.636 76.5016C364.312 83.1214 360.459 142.767 360.459 142.767L380.09 137.413L384.833 69.8818Z" fill="#FFA553"/>
<path d="M553.108 366.735H1.66866C1.43201 366.735 1.20504 366.641 1.0377 366.473C0.870362 366.306 0.776367 366.079 0.776367 365.842C0.776367 365.606 0.870362 365.379 1.0377 365.212C1.20504 365.044 1.43201 364.95 1.66866 364.95H553.108C553.344 364.95 553.571 365.044 553.739 365.212C553.906 365.379 554 365.606 554 365.842C554 366.079 553.906 366.306 553.739 366.473C553.571 366.641 553.344 366.735 553.108 366.735Z" fill="#BEC5C9"/>
</svg>
