<svg width="auto" height="270" viewBox="0 0 274 270" fill="none" xmlns="http://www.w3.org/2000/svg">
<path d="M137 269.817C212.663 269.817 274 209.416 274 134.908C274 60.4006 212.663 0 137 0C61.337 0 0 60.4006 0 134.908C0 209.416 61.337 269.817 137 269.817Z" fill="#3F3D56"/>
<path d="M250.514 134.909C250.532 151.086 246.98 167.068 240.111 181.715C239.9 182.167 239.682 182.618 239.464 183.07C228.959 204.588 211.892 222.214 190.723 233.406C190.279 233.639 189.835 233.873 189.391 234.099C173.179 242.408 155.217 246.726 137 246.692C130.681 246.694 124.372 246.18 118.136 245.157C117.639 245.074 117.142 244.991 116.653 244.901C93.3202 240.749 71.8652 229.418 55.2816 212.487C54.9353 212.133 54.589 211.772 54.2352 211.411C38.3523 194.83 28.0146 173.723 24.6522 151.01C24.5845 150.514 24.5092 150.017 24.449 149.52C21.3807 126.427 25.6826 102.954 36.7414 82.4501C36.9747 82.006 37.2231 81.5619 37.464 81.1253C45.9816 65.9149 57.9054 52.8833 72.3011 43.0513C72.7151 42.7653 73.1292 42.4867 73.5432 42.2082C87.4533 32.959 103.227 26.8813 119.747 24.4058C120.244 24.338 120.74 24.2628 121.237 24.195C126.461 23.4803 131.727 23.1232 137 23.1261C153.602 23.099 170.012 26.682 185.093 33.627C185.552 33.8377 186.004 34.0485 186.455 34.2668C200.561 40.9968 213.125 50.5655 223.362 62.3744C223.694 62.7508 224.025 63.1346 224.341 63.5185C236.715 78.1226 245.083 95.691 248.625 114.502V114.51C248.722 114.999 248.805 115.488 248.888 115.985C249.972 122.235 250.516 128.566 250.514 134.909Z" fill="white"/>
<path d="M148.208 126.411C149.771 128.348 150.785 130.668 151.144 133.13L205.837 122.814C203.677 111.187 198.528 100.322 190.895 91.2891L148.208 126.411Z" fill="#518DED"/>
<path d="M131.769 123.678L130.542 124.551L97.3983 78.1668L96.5176 76.9398L72.3018 43.0511C72.7158 42.7651 73.1298 42.4865 73.5438 42.208L97.7747 76.1042L98.6479 77.3387L131.769 123.678Z" fill="#BEC5C9"/>
<path d="M125.844 129.677L125.114 131.002L74.8233 103.376L73.4984 102.646L36.7417 82.4498C36.975 82.0057 37.2235 81.5616 37.4644 81.125L74.221 101.314L75.5383 102.044L125.844 129.677Z" fill="#BEC5C9"/>
<path d="M125.204 139.214L67.943 145.929L66.4525 146.109L24.6525 151.01C24.5847 150.513 24.5095 150.016 24.4492 149.519L66.2267 144.619L67.7172 144.446L125.031 137.724L125.204 139.214Z" fill="#BEC5C9"/>
<path d="M128.9 144.273L87.0401 183.062L85.9335 184.085L55.2817 212.487C54.9354 212.133 54.5892 211.771 54.2354 211.41L84.8872 183.009L85.9862 181.985L127.877 143.166L128.9 144.273Z" fill="#BEC5C9"/>
<path d="M186.456 34.2668L168.593 71.7837H168.586L167.938 73.1462L143.519 124.438L142.164 123.791L166.583 72.5063L167.231 71.1363L185.093 33.627C185.552 33.8377 186.004 34.0485 186.456 34.2668Z" fill="#BEC5C9"/>
<path d="M224.341 63.5182L192.056 90.0827L190.889 91.0462L146.756 127.359L145.8 126.2L189.911 89.902L191.07 88.946L223.363 62.374C223.694 62.7505 224.025 63.1343 224.341 63.5182Z" fill="#BEC5C9"/>
<path d="M248.888 115.985L207.555 123.776L206.08 124.055L149.518 134.721L149.24 133.246L205.831 122.572L207.307 122.301V122.293L248.625 114.51C248.723 114.999 248.806 115.488 248.888 115.985Z" fill="#BEC5C9"/>
<path d="M240.111 181.715C239.901 182.166 239.682 182.618 239.464 183.07L201.225 165.741L199.854 165.117L148.208 141.714L148.833 140.344L200.509 163.762L201.879 164.387L240.111 181.715Z" fill="#BEC5C9"/>
<path d="M190.723 233.406C190.279 233.639 189.835 233.873 189.391 234.098L169.744 197.462L169.029 196.13L142.179 146.057L143.504 145.35L170.362 195.437L171.069 196.762H171.077L190.723 233.406Z" fill="#BEC5C9"/>
<path d="M134.817 147.269L125.355 202.821L125.099 204.312L118.136 245.156C117.639 245.073 117.143 244.99 116.653 244.9L123.609 204.048L123.865 202.565L133.327 147.013L134.817 147.269Z" fill="#BEC5C9"/>
<path d="M135.246 122.819L133.756 123.03L125.784 66.9203L125.573 65.4298L119.747 24.4051C120.244 24.3374 120.741 24.2621 121.237 24.1943L127.064 65.2115L127.275 66.702L135.246 122.819Z" fill="#BEC5C9"/>
<path d="M137 148.993C144.899 148.993 151.303 142.687 151.303 134.909C151.303 127.131 144.899 120.825 137 120.825C129.102 120.825 122.698 127.131 122.698 134.909C122.698 142.687 129.102 148.993 137 148.993Z" fill="#3F3D56"/>
<path d="M189.225 114.474L179 119.246L190.396 116.86C190.396 116.86 198.769 117.201 198.769 113.792L212.403 106.294C212.403 106.294 223.992 112.429 227.4 109.02C230.809 105.612 224.673 98.795 224.673 98.795C224.673 98.795 228.78 96.5298 228.431 95.6173C228.082 94.7048 222.628 96.0682 222.628 96.0682C222.628 96.0682 209.676 88.5696 210.358 101.522L196.724 110.561C196.724 110.561 189.907 110.384 189.225 114.474Z" fill="#3F3D56"/>
</svg>
