<svg width="auto" height="272" viewBox="0 0 410 272" fill="none" xmlns="http://www.w3.org/2000/svg">
<path d="M88.0197 158.676C68.8505 139.805 60.7544 120.118 65.222 103.242C70.9554 81.5854 96.426 66.6116 135.103 62.1602L135.246 63.4024C97.1073 67.7916 72.0252 82.4294 66.4307 103.562C62.0827 119.986 70.0614 139.243 88.897 157.785L88.0197 158.676Z" fill="#BEC5C9"/>
<path d="M272.97 225.661C249.046 225.661 223.048 222.106 197.224 215.269C165.29 206.815 136.01 194.054 112.549 178.366L113.244 177.327C136.592 192.939 165.742 205.642 197.544 214.06C226.283 221.669 255.238 225.194 281.267 224.264L281.312 225.513C278.563 225.612 275.783 225.661 272.97 225.661Z" fill="#BEC5C9"/>
<path d="M327.855 217.799L327.455 216.615C348.852 209.38 362.235 197.726 366.157 182.912C371.143 164.079 360.311 142.225 335.658 121.375C310.879 100.419 275.148 83.0305 235.044 72.4138L235.364 71.2051C275.643 81.8685 311.548 99.3467 336.465 120.42C361.508 141.599 372.482 163.906 367.366 183.232C363.331 198.471 349.669 210.424 327.855 217.799Z" fill="#BEC5C9"/>
<path d="M131.38 226.184C84.3705 205.335 48.1459 178.285 29.3799 150.018L30.4213 149.326C49.0576 177.398 85.0921 204.287 131.887 225.042L131.38 226.184Z" fill="#BEC5C9"/>
<path d="M296.664 262.304C291.815 262.304 286.883 262.196 281.869 261.98L281.922 260.731C319.344 262.351 352.362 257.872 377.412 247.777L377.88 248.937C356.027 257.742 328.175 262.304 296.664 262.304Z" fill="#BEC5C9"/>
<path d="M269.388 63.2816C261.618 60.7518 253.626 58.3964 245.634 56.2806C199.643 44.105 154.433 39.7821 114.89 43.7815L114.764 42.5374C154.454 38.5249 199.819 42.8582 245.954 55.0718C253.969 57.1938 261.983 59.5559 269.775 62.093L269.388 63.2816Z" fill="#BEC5C9"/>
<path d="M58.6396 160.551C39.4704 141.68 31.3742 121.993 35.8419 105.117C41.5753 83.4604 67.0459 68.4866 105.723 64.0352L105.866 65.2774C67.7272 69.6666 42.6451 84.3044 37.0506 105.437C32.7026 121.861 40.6812 141.118 59.5168 159.66L58.6396 160.551Z" fill="#BEC5C9"/>
<path d="M243.59 227.537C219.666 227.537 193.668 223.982 167.844 217.145C135.91 208.691 106.63 195.93 83.1692 180.242L83.8639 179.203C107.212 194.815 136.362 207.518 168.164 215.936C196.903 223.545 225.858 227.07 251.887 226.14L251.932 227.389C249.183 227.488 246.402 227.537 243.59 227.537Z" fill="#BEC5C9"/>
<path d="M298.476 219.674L298.075 218.49C319.472 211.255 332.855 199.601 336.777 184.787C341.763 165.954 330.932 144.1 306.278 123.25C281.499 102.294 245.768 84.9055 205.664 74.2888L205.984 73.0801C246.263 83.7435 282.168 101.222 307.085 122.295C332.128 143.474 343.102 165.781 337.986 185.107C333.952 200.346 320.289 212.299 298.476 219.674Z" fill="#BEC5C9"/>
<path d="M102.001 228.059C54.9907 207.21 18.766 180.16 0 151.893L1.04144 151.201C19.6777 179.273 55.7123 206.162 102.507 226.917L102.001 228.059Z" fill="#BEC5C9"/>
<path d="M267.284 264.179C262.435 264.179 257.503 264.071 252.489 263.855L252.542 262.606C289.964 264.226 322.982 259.747 348.032 249.652L348.5 250.812C326.647 259.617 298.795 264.179 267.284 264.179Z" fill="#BEC5C9"/>
<path d="M240.008 65.1566C232.238 62.6268 224.246 60.2714 216.254 58.1556C170.263 45.98 125.053 41.6571 85.5098 45.6565L85.384 44.4124C125.074 40.3999 170.439 44.7332 216.574 56.9468C224.589 59.0688 232.603 61.4309 240.395 63.968L240.008 65.1566Z" fill="#BEC5C9"/>
<path d="M94.7286 215.168C94.7286 216.441 94.7705 217.714 94.8595 218.976C94.9538 220.485 95.1162 221.983 95.3363 223.471C96.0757 228.48 97.489 233.367 99.5377 237.998C99.6424 238.228 99.7472 238.459 99.852 238.689L100.009 239.035C100.062 239.15 100.119 239.266 100.172 239.376C100.245 239.527 100.313 239.674 100.386 239.821C100.475 240.004 100.564 240.188 100.659 240.371C100.669 240.392 100.68 240.418 100.695 240.444C100.774 240.601 100.847 240.753 100.931 240.91C100.947 240.945 100.964 240.978 100.984 241.01C101.073 241.188 101.167 241.371 101.261 241.55C101.366 241.738 101.466 241.932 101.57 242.121C101.822 242.587 102.084 243.048 102.351 243.509C102.429 243.645 102.508 243.781 102.592 243.917C102.665 244.043 102.739 244.169 102.817 244.295C102.869 244.378 102.922 244.467 102.974 244.551C103.058 244.693 103.142 244.829 103.231 244.97C103.425 245.28 103.624 245.589 103.818 245.898H103.823C103.912 246.039 104.006 246.181 104.101 246.317V246.322C104.378 246.741 104.666 247.16 104.954 247.574L104.956 247.574L104.958 247.576L104.959 247.577L104.96 247.579C105.19 247.915 105.431 248.239 105.667 248.564V248.569C105.824 248.774 105.976 248.983 106.133 249.188C106.259 249.355 106.39 249.528 106.521 249.696C106.547 249.732 106.578 249.764 106.605 249.8V249.806C106.641 249.853 106.678 249.895 106.715 249.942C107.27 250.654 107.843 251.351 108.433 252.032L108.527 252.142C108.559 252.179 108.595 252.215 108.627 252.257C108.679 252.315 108.726 252.373 108.779 252.43C108.826 252.488 108.878 252.546 108.931 252.603C112.007 256.069 115.496 259.146 119.319 261.766C119.827 262.117 120.346 262.457 120.864 262.787C120.995 262.871 121.126 262.955 121.257 263.033C121.294 263.06 121.336 263.086 121.372 263.112C121.446 263.154 121.514 263.196 121.587 263.243C121.655 263.285 121.723 263.327 121.797 263.369C122.074 263.541 122.357 263.709 122.64 263.877C122.708 263.919 122.782 263.961 122.855 264.003C122.923 264.039 122.996 264.081 123.07 264.123C123.07 264.128 123.07 264.128 123.075 264.128H123.08V264.133H123.085C123.437 264.338 123.793 264.537 124.154 264.731C124.348 264.835 124.547 264.945 124.746 265.045C125.197 265.291 125.652 265.527 126.108 265.752C126.271 265.831 126.438 265.909 126.601 265.993C126.737 266.056 126.873 266.124 127.009 266.187C127.051 266.208 127.088 266.224 127.125 266.245C127.24 266.297 127.35 266.349 127.465 266.402C127.591 266.459 127.716 266.517 127.837 266.575C127.978 266.638 128.115 266.7 128.256 266.758C128.78 266.994 129.309 267.219 129.838 267.434C131.734 268.211 133.672 268.883 135.643 269.445C135.732 269.472 135.826 269.498 135.92 269.524C136.764 269.76 137.612 269.975 138.466 270.168C139.959 270.514 141.466 270.797 142.987 271.017H142.998C143.181 271.043 143.359 271.069 143.543 271.096C143.558 271.096 143.574 271.101 143.595 271.101C143.595 271.106 143.595 271.106 143.6 271.101C143.799 271.127 144.004 271.153 144.203 271.179C144.216 271.184 144.23 271.185 144.245 271.185C144.433 271.211 144.627 271.232 144.816 271.253C145.02 271.274 145.224 271.295 145.428 271.316C145.586 271.331 145.743 271.347 145.9 271.363C145.913 271.367 145.928 271.369 145.942 271.368C146.083 271.379 146.225 271.394 146.366 271.405H146.387C146.508 271.415 146.633 271.426 146.754 271.436C148.215 271.551 149.682 271.604 151.17 271.604C152.778 271.604 154.376 271.541 155.953 271.405H155.969C156.309 271.373 156.644 271.342 156.98 271.31C157.069 271.3 157.153 271.295 157.242 271.284C157.257 271.284 157.278 271.279 157.294 271.279C157.32 271.274 157.346 271.274 157.378 271.269C157.392 271.269 157.406 271.267 157.42 271.263C157.535 271.253 157.65 271.237 157.771 271.227L158.164 271.179C158.295 271.164 158.426 271.143 158.557 271.127C158.588 271.122 158.614 271.122 158.646 271.117C158.74 271.106 158.834 271.09 158.929 271.075C158.976 271.069 159.023 271.064 159.065 271.059C159.159 271.043 159.248 271.033 159.342 271.017H159.348C162.222 270.603 165.06 269.964 167.834 269.105C167.981 269.058 168.128 269.016 168.274 268.969C168.28 268.969 168.285 268.964 168.29 268.964C168.332 268.948 168.379 268.937 168.421 268.922C168.814 268.796 169.202 268.665 169.589 268.529C170.124 268.351 170.653 268.157 171.182 267.958C171.323 267.9 171.465 267.848 171.606 267.79C171.894 267.68 172.177 267.565 172.46 267.45C172.942 267.256 173.424 267.051 173.901 266.842C174.346 266.643 174.786 266.444 175.226 266.234C175.237 266.229 175.252 266.229 175.263 266.218C175.362 266.171 175.462 266.124 175.556 266.077H175.561C177.974 264.919 180.3 263.59 182.524 262.101C183.236 261.624 183.938 261.132 184.629 260.624C185.185 260.21 185.73 259.791 186.274 259.361C188.962 257.223 191.45 254.845 193.708 252.257V252.252C193.87 252.074 194.022 251.891 194.18 251.707C194.206 251.681 194.227 251.655 194.248 251.634C194.347 251.514 194.441 251.398 194.541 251.283V251.278C194.672 251.126 194.803 250.969 194.929 250.812C194.96 250.775 194.986 250.743 195.012 250.712V250.707C195.117 250.581 195.217 250.455 195.322 250.324C195.374 250.261 195.421 250.199 195.473 250.136V250.131C195.783 249.743 196.081 249.355 196.38 248.957C196.458 248.852 196.537 248.742 196.621 248.632C196.998 248.124 197.365 247.605 197.721 247.087V247.082C197.857 246.888 197.988 246.689 198.124 246.495C198.255 246.296 198.386 246.097 198.517 245.898C198.648 245.688 198.784 245.484 198.915 245.274L198.931 245.243C199.062 245.044 199.193 244.834 199.319 244.63C199.418 244.462 199.518 244.3 199.617 244.137C199.68 244.027 199.748 243.917 199.811 243.802C199.836 243.767 199.858 243.73 199.879 243.692C200.026 243.436 200.173 243.179 200.319 242.922C200.492 242.624 200.66 242.32 200.827 242.016C200.89 241.89 200.958 241.764 201.027 241.639C201.053 241.597 201.074 241.555 201.095 241.513C201.173 241.366 201.252 241.214 201.325 241.062C201.404 240.916 201.482 240.764 201.561 240.612C201.634 240.465 201.713 240.313 201.786 240.161C201.844 240.046 201.896 239.931 201.954 239.816C201.958 239.806 201.963 239.797 201.969 239.789C201.996 239.732 202.022 239.679 202.043 239.627C202.049 239.619 202.054 239.61 202.059 239.601C202.116 239.486 202.169 239.365 202.226 239.25C202.299 239.098 202.368 238.941 202.441 238.789C202.488 238.684 202.54 238.574 202.588 238.464C202.656 238.312 202.729 238.16 202.792 238.003C202.865 237.846 202.933 237.689 203.001 237.526C203.021 237.487 203.039 237.447 203.054 237.406C203.091 237.332 203.117 237.259 203.148 237.186C203.232 236.992 203.316 236.793 203.394 236.599C203.489 236.379 203.578 236.154 203.662 235.934C203.745 235.729 203.824 235.52 203.903 235.31L203.934 235.237C205.155 232.022 206.08 228.703 206.7 225.32V225.315C207.049 223.384 207.299 221.436 207.449 219.479C207.454 219.369 207.465 219.264 207.47 219.16C207.564 217.834 207.606 216.504 207.606 215.168C207.606 214.576 207.596 213.989 207.58 213.402C207.214 201.131 202.839 189.318 195.123 179.77C194.955 179.56 194.787 179.351 194.614 179.141C194.441 178.932 194.263 178.727 194.09 178.523C188.348 171.798 181.105 166.516 172.946 163.103C164.788 159.691 155.941 158.243 147.12 158.877C138.299 159.51 129.751 162.208 122.164 166.751C114.577 171.295 108.163 177.558 103.441 185.035C103.184 185.443 102.927 185.857 102.681 186.271C102.429 186.69 102.188 187.109 101.947 187.534C97.2016 195.97 94.715 205.488 94.7286 215.168Z" fill="#F5F5F5"/>
<path d="M148.927 178.252C158.207 180.633 167.718 182.006 177.293 182.346C178.741 182.425 180.193 182.415 181.639 182.317C184.819 182.049 187.542 181.05 190.575 180.504C192.033 180.242 193.657 180.051 195.125 179.768C194.786 179.347 194.441 178.931 194.089 178.521C190.924 178.788 187.709 179.664 184.506 180.07C179.061 180.763 172.96 179.99 168.832 178.085C166.829 177.16 165.295 176.006 163.299 175.077C163.028 174.938 162.734 174.848 162.431 174.811C161.855 174.794 161.287 174.941 160.793 175.236C157.444 176.926 152.583 178.3 148.071 177.544C147.735 177.807 148.374 178.107 148.927 178.252Z" fill="#518DED"/>
<path d="M128.96 184.201C128.918 184.194 128.877 184.188 128.836 184.181C129.009 184.073 129.172 183.95 129.324 183.813L128.96 184.201Z" fill="white"/>
<path d="M101.948 187.536C103.833 187.687 105.727 187.799 107.632 187.872C109.08 187.95 110.531 187.941 111.978 187.843C115.157 187.574 117.88 186.576 120.913 186.03C123.693 185.53 127.071 185.29 128.836 184.181C124.274 183.391 119.548 184.998 114.845 185.596C111.04 186.064 107.183 185.874 103.443 185.034C102.922 185.853 102.424 186.687 101.948 187.536Z" fill="#518DED"/>
<path d="M124.746 265.045C125.197 265.291 125.652 265.527 126.108 265.752C126.271 265.831 126.438 265.909 126.601 265.993C126.737 266.056 126.873 266.124 127.009 266.187C127.051 266.208 127.088 266.224 127.124 266.245C127.24 266.297 127.35 266.349 127.465 266.402C127.591 266.459 127.716 266.517 127.837 266.575C127.978 266.637 128.115 266.7 128.256 266.758C128.78 266.994 129.309 267.219 129.838 267.434C131.734 268.211 133.672 268.883 135.643 269.445C135.732 269.472 135.826 269.498 135.92 269.524C136.764 269.76 137.612 269.974 138.466 270.168C139.959 270.514 141.466 270.797 142.987 271.017H142.998C143.181 271.043 143.359 271.069 143.542 271.096C143.558 271.096 143.574 271.101 143.595 271.101C143.595 271.106 143.595 271.106 143.6 271.101C143.799 271.127 144.003 271.153 144.203 271.179C144.216 271.183 144.23 271.185 144.244 271.185C144.433 271.211 144.627 271.232 144.815 271.253C145.02 271.274 145.224 271.295 145.428 271.316C145.586 271.331 145.743 271.347 145.9 271.363C145.913 271.367 145.928 271.369 145.942 271.368C146.083 271.378 146.225 271.394 146.366 271.405H146.387C146.508 271.415 146.633 271.426 146.754 271.436C148.215 271.551 149.682 271.604 151.17 271.604C152.778 271.604 154.376 271.541 155.953 271.405H155.969C156.309 271.373 156.644 271.342 156.98 271.31C157.069 271.3 157.153 271.295 157.242 271.284C157.257 271.284 157.278 271.279 157.294 271.279C157.32 271.274 157.346 271.274 157.378 271.268C157.392 271.269 157.406 271.267 157.42 271.263C157.535 271.253 157.65 271.237 157.771 271.227L158.164 271.179C158.295 271.164 158.426 271.143 158.557 271.127C158.588 271.122 158.614 271.122 158.646 271.117C158.74 271.106 158.834 271.09 158.928 271.075C158.976 271.069 159.023 271.064 159.065 271.059C159.159 271.043 159.248 271.033 159.342 271.017H159.348C162.222 270.603 165.06 269.964 167.834 269.105C167.981 269.058 168.128 269.016 168.274 268.969C167.598 265.814 166.205 262.857 164.204 260.327C162.203 257.796 159.647 255.759 156.733 254.374C157.454 253.687 157.952 252.8 158.164 251.828C158.3 251.201 158.31 250.553 158.195 249.922C158.08 249.291 157.842 248.689 157.493 248.15C156.813 247.106 155.747 246.375 154.528 246.118L146.764 244.494C145.514 244.25 144.219 244.509 143.16 245.216C142.1 245.922 141.362 247.018 141.107 248.265C141.027 248.648 140.992 249.038 141.002 249.428C133.526 254.405 128.146 259.565 124.746 265.045Z" fill="#B7DE6A"/>
<path d="M147.67 241.428C156.603 241.428 163.845 234.186 163.845 225.253C163.845 216.32 156.603 209.078 147.67 209.078C138.737 209.078 131.495 216.32 131.495 225.253C131.495 234.186 138.737 241.428 147.67 241.428Z" fill="#FFB6B6"/>
<path d="M137.588 239.198C135.863 238.019 134.102 235.755 132.926 234.058C131.368 231.828 130.296 229.295 129.779 226.623C129.262 223.952 129.313 221.202 129.927 218.551C130.123 217.491 130.604 216.505 131.319 215.699C132.081 214.945 133.325 214.587 134.255 215.121C134.001 214.441 133.89 213.717 133.927 212.992C133.964 212.268 134.149 211.559 134.471 210.909C135.124 209.611 136.071 208.483 137.236 207.615C139.465 205.899 142.116 204.818 144.909 204.487C147.703 204.157 150.533 204.588 153.101 205.737C154.111 206.205 152.452 202.589 153.509 202.938C154.56 203.344 155.728 203.324 156.763 202.881C157.758 202.38 161.055 205.355 160.673 204.308C161.428 204.651 162.084 205.179 162.58 205.844C163.075 206.508 163.395 207.287 163.508 208.108C163.622 208.929 163.526 209.766 163.229 210.54C162.932 211.314 162.444 212 161.811 212.535C160.976 213.24 159.934 213.645 159.02 214.244C157.418 215.37 156.285 217.044 155.833 218.949C155.382 220.855 155.643 222.859 156.569 224.585C155.607 223.967 154.552 223.509 153.444 223.227C152.888 223.091 152.308 223.09 151.752 223.224C151.196 223.358 150.679 223.623 150.246 223.996C149.884 224.411 149.61 224.895 149.442 225.419C149.274 225.943 149.215 226.495 149.268 227.043C149.304 228.141 149.565 229.222 149.595 230.32C149.681 233.541 151.406 239.666 148.908 241.378C146.937 242.729 139.943 240.806 137.588 239.198Z" fill="#212427"/>
<path d="M408.818 91.5348C408.818 92.8078 408.776 94.0808 408.687 95.3433C408.593 96.8521 408.431 98.3503 408.211 99.8381C407.471 104.848 406.058 109.734 404.009 114.365C403.905 114.595 403.8 114.826 403.695 115.056L403.538 115.402C403.485 115.517 403.428 115.633 403.375 115.743C403.302 115.895 403.234 116.041 403.161 116.188C403.072 116.371 402.983 116.555 402.888 116.738C402.878 116.759 402.867 116.785 402.852 116.811C402.773 116.969 402.7 117.12 402.616 117.278C402.6 117.312 402.583 117.345 402.563 117.377C402.474 117.555 402.38 117.739 402.286 117.917C402.181 118.105 402.081 118.299 401.977 118.488C401.725 118.954 401.463 119.415 401.196 119.876C401.118 120.012 401.039 120.148 400.955 120.285C400.882 120.41 400.808 120.536 400.73 120.662C400.677 120.746 400.625 120.835 400.573 120.919C400.489 121.06 400.405 121.196 400.316 121.338C400.122 121.647 399.923 121.956 399.729 122.265H399.724C399.635 122.406 399.541 122.548 399.446 122.684V122.689C399.169 123.108 398.881 123.527 398.592 123.941C398.592 123.941 398.591 123.941 398.59 123.942C398.59 123.942 398.589 123.942 398.589 123.943C398.588 123.943 398.588 123.944 398.588 123.944C398.587 123.945 398.587 123.946 398.587 123.946C398.357 124.282 398.116 124.607 397.88 124.931V124.937C397.723 125.141 397.571 125.35 397.414 125.555C397.288 125.722 397.157 125.895 397.026 126.063C397 126.1 396.968 126.131 396.942 126.168V126.173C396.906 126.22 396.869 126.262 396.832 126.309C396.277 127.022 395.704 127.718 395.114 128.399L395.02 128.509C394.988 128.546 394.952 128.583 394.92 128.625C394.868 128.682 394.821 128.74 394.768 128.797C394.721 128.855 394.669 128.913 394.616 128.97C391.54 132.436 388.051 135.513 384.228 138.133C383.72 138.484 383.201 138.824 382.683 139.154C382.552 139.238 382.421 139.322 382.29 139.401C382.253 139.427 382.211 139.453 382.174 139.479C382.101 139.521 382.033 139.563 381.96 139.61C381.892 139.652 381.823 139.694 381.75 139.736C381.473 139.909 381.19 140.076 380.907 140.244C380.839 140.286 380.765 140.328 380.692 140.37C380.624 140.406 380.55 140.448 380.477 140.49C380.477 140.495 380.477 140.495 380.472 140.495H380.467V140.501H380.461C380.11 140.705 379.754 140.904 379.393 141.098C379.199 141.203 379 141.313 378.801 141.412C378.35 141.658 377.895 141.894 377.439 142.119C377.276 142.198 377.109 142.277 376.946 142.36C376.81 142.423 376.674 142.491 376.538 142.554C376.496 142.575 376.459 142.591 376.422 142.612C376.307 142.664 376.197 142.717 376.082 142.769C375.956 142.827 375.83 142.884 375.71 142.942C375.569 143.005 375.432 143.068 375.291 143.125C374.767 143.361 374.238 143.586 373.709 143.801C371.813 144.578 369.875 145.25 367.904 145.813C367.815 145.839 367.721 145.865 367.627 145.891C366.783 146.127 365.935 146.342 365.081 146.536C363.588 146.881 362.081 147.164 360.56 147.384H360.549C360.366 147.41 360.188 147.437 360.004 147.463C359.989 147.463 359.973 147.468 359.952 147.468C359.952 147.473 359.952 147.473 359.947 147.468C359.748 147.494 359.543 147.52 359.344 147.547C359.331 147.551 359.317 147.552 359.302 147.552C359.114 147.578 358.92 147.599 358.731 147.62C358.527 147.641 358.323 147.662 358.118 147.683C357.961 147.699 357.804 147.714 357.647 147.73C357.634 147.735 357.619 147.736 357.605 147.735C357.464 147.746 357.322 147.761 357.181 147.772H357.16C357.039 147.782 356.914 147.793 356.793 147.803C355.331 147.919 353.865 147.971 352.377 147.971C350.769 147.971 349.171 147.908 347.594 147.772H347.578C347.238 147.741 346.902 147.709 346.567 147.678C346.478 147.667 346.394 147.662 346.305 147.651C346.29 147.651 346.269 147.646 346.253 147.646C346.227 147.641 346.201 147.641 346.169 147.636C346.155 147.636 346.141 147.635 346.127 147.63C346.012 147.62 345.897 147.604 345.776 147.594L345.383 147.547C345.252 147.531 345.121 147.51 344.99 147.494C344.959 147.489 344.933 147.489 344.901 147.484C344.807 147.473 344.713 147.458 344.618 147.442C344.571 147.437 344.524 147.431 344.482 147.426C344.388 147.41 344.299 147.4 344.205 147.384H344.199C341.325 146.97 338.487 146.331 335.713 145.472C335.566 145.425 335.419 145.383 335.273 145.336C335.267 145.336 335.262 145.331 335.257 145.331C335.215 145.315 335.168 145.305 335.126 145.289C334.733 145.163 334.345 145.032 333.958 144.896C333.423 144.718 332.894 144.524 332.365 144.325C332.224 144.267 332.082 144.215 331.941 144.157C331.653 144.047 331.37 143.932 331.087 143.817C330.605 143.623 330.123 143.419 329.646 143.209C329.201 143.01 328.761 142.811 328.321 142.601C328.31 142.596 328.295 142.596 328.284 142.586C328.185 142.539 328.085 142.491 327.991 142.444H327.986C325.573 141.286 323.246 139.958 321.023 138.468C320.311 137.991 319.609 137.499 318.917 136.991C318.362 136.577 317.817 136.158 317.273 135.728C314.585 133.59 312.097 131.213 309.839 128.625V128.619C309.676 128.441 309.525 128.258 309.367 128.075C309.341 128.048 309.32 128.022 309.299 128.001C309.2 127.881 309.105 127.765 309.006 127.65V127.645C308.875 127.493 308.744 127.336 308.618 127.179C308.587 127.142 308.561 127.111 308.534 127.079V127.074C308.43 126.948 308.33 126.823 308.225 126.692C308.173 126.629 308.126 126.566 308.073 126.503V126.498C307.764 126.11 307.466 125.722 307.167 125.324C307.089 125.219 307.01 125.109 306.926 124.999C306.549 124.491 306.182 123.973 305.826 123.454V123.449C305.69 123.255 305.559 123.056 305.423 122.862C305.292 122.663 305.161 122.464 305.03 122.265C304.899 122.055 304.763 121.851 304.632 121.641L304.616 121.61C304.485 121.411 304.354 121.201 304.228 120.997C304.129 120.829 304.029 120.667 303.93 120.505C303.867 120.395 303.799 120.285 303.736 120.169C303.711 120.134 303.689 120.097 303.668 120.059C303.521 119.803 303.374 119.546 303.228 119.289C303.055 118.991 302.887 118.687 302.72 118.383C302.657 118.257 302.589 118.132 302.52 118.006C302.494 117.964 302.473 117.922 302.452 117.88C302.374 117.733 302.295 117.582 302.222 117.43C302.143 117.283 302.065 117.131 301.986 116.979C301.913 116.832 301.834 116.68 301.761 116.529C301.703 116.413 301.651 116.298 301.593 116.183C301.589 116.173 301.584 116.165 301.577 116.157C301.551 116.099 301.525 116.047 301.504 115.994C301.498 115.986 301.492 115.977 301.488 115.968C301.431 115.853 301.378 115.732 301.321 115.617C301.247 115.465 301.179 115.308 301.106 115.156C301.059 115.051 301.006 114.941 300.959 114.831C300.891 114.679 300.818 114.527 300.755 114.37C300.682 114.213 300.614 114.056 300.545 113.893C300.526 113.854 300.508 113.814 300.493 113.773C300.456 113.7 300.43 113.626 300.399 113.553C300.315 113.359 300.231 113.16 300.153 112.966C300.058 112.746 299.969 112.521 299.885 112.301C299.802 112.097 299.723 111.887 299.644 111.678L299.613 111.604C298.392 108.389 297.467 105.07 296.847 101.687V101.682C296.498 99.751 296.247 97.8031 296.098 95.8463C296.093 95.7362 296.082 95.6315 296.077 95.5267C295.983 94.2013 295.941 92.8707 295.941 91.5348C295.941 90.9429 295.951 90.3561 295.967 89.7694C296.333 77.4985 300.708 65.6853 308.424 56.1371C308.592 55.9276 308.76 55.718 308.933 55.5085C309.105 55.2989 309.284 55.0946 309.456 54.8903C315.199 48.165 322.442 42.8831 330.601 39.4705C338.759 36.0579 347.606 34.6101 356.427 35.2437C365.247 35.8773 373.796 38.5747 381.383 43.1184C388.97 47.6621 395.384 53.9249 400.106 61.402C400.363 61.8106 400.62 62.2245 400.866 62.6383C401.117 63.0574 401.358 63.4765 401.599 63.9009C406.345 72.3368 408.832 81.8555 408.818 91.5348Z" fill="#F5F5F5"/>
<path d="M354.62 54.6202C345.34 57.0016 335.829 58.3743 326.254 58.7144C324.806 58.7933 323.354 58.7834 321.908 58.6848C318.728 58.4174 316.005 57.4182 312.972 56.8721C311.514 56.6103 309.89 56.4189 308.422 56.136C308.761 55.7152 309.106 55.2995 309.458 54.889C312.623 55.1565 315.838 56.0319 319.041 56.4386C324.486 57.1311 330.587 56.3584 334.715 54.4527C336.718 53.5281 338.252 52.374 340.248 51.4451C340.519 51.3057 340.813 51.2157 341.116 51.1791C341.692 51.1618 342.26 51.3093 342.754 51.6041C346.103 53.2944 350.964 54.6681 355.476 53.9123C355.812 54.1755 355.173 54.4752 354.62 54.6202Z" fill="#518DED"/>
<path d="M374.587 60.5686C374.628 60.5611 374.67 60.5552 374.711 60.548C374.538 60.4406 374.374 60.3177 374.223 60.1807L374.587 60.5686Z" fill="white"/>
<path d="M401.598 63.9031C399.714 64.0537 397.819 64.1658 395.915 64.2395C394.467 64.3176 393.016 64.3078 391.569 64.2099C388.39 63.9411 385.666 62.9432 382.633 62.3972C379.854 61.8975 376.476 61.6569 374.711 60.5478C379.272 59.7583 383.998 61.3655 388.702 61.9637C392.507 62.4315 396.364 62.2411 400.104 61.4007C400.624 62.2198 401.123 63.054 401.598 63.9031Z" fill="#518DED"/>
<path d="M346.014 116.231C355.376 116.231 362.966 108.472 362.966 98.9016C362.966 89.3309 355.376 81.5723 346.014 81.5723C336.652 81.5723 329.063 89.3309 329.063 98.9016C329.063 108.472 336.652 116.231 346.014 116.231Z" fill="#FFB6B6"/>
<path d="M378.801 141.412C378.35 141.658 377.895 141.894 377.439 142.119C377.276 142.198 377.109 142.276 376.946 142.36C376.81 142.423 376.674 142.491 376.538 142.554C376.496 142.575 376.459 142.591 376.422 142.612C376.307 142.664 376.197 142.717 376.082 142.769C375.956 142.827 375.831 142.884 375.71 142.942C375.569 143.005 375.432 143.068 375.291 143.125C374.767 143.361 374.238 143.586 373.709 143.801C371.813 144.578 369.875 145.25 367.904 145.813C367.815 145.839 367.721 145.865 367.627 145.891C366.783 146.127 365.935 146.342 365.081 146.536C363.588 146.881 362.081 147.164 360.56 147.384H360.549C360.366 147.41 360.188 147.437 360.004 147.463C359.989 147.463 359.973 147.468 359.952 147.468C359.952 147.473 359.952 147.473 359.947 147.468C359.748 147.494 359.543 147.52 359.344 147.547C359.331 147.551 359.317 147.552 359.302 147.552C359.114 147.578 358.92 147.599 358.731 147.62C358.527 147.641 358.323 147.662 358.119 147.683C357.961 147.698 357.804 147.714 357.647 147.73C357.634 147.735 357.619 147.736 357.605 147.735C357.464 147.746 357.322 147.761 357.181 147.772H357.16C357.039 147.782 356.914 147.793 356.793 147.803C355.332 147.919 353.865 147.971 352.377 147.971C350.769 147.971 349.171 147.908 347.594 147.772H347.578C347.238 147.74 346.903 147.709 346.567 147.678C346.478 147.667 346.394 147.662 346.305 147.651C346.29 147.651 346.269 147.646 346.253 147.646C346.227 147.641 346.201 147.641 346.169 147.636C346.155 147.636 346.141 147.634 346.127 147.63C346.012 147.62 345.897 147.604 345.776 147.594L345.383 147.547C345.252 147.531 345.121 147.51 344.99 147.494C344.959 147.489 344.933 147.489 344.901 147.484C344.807 147.473 344.713 147.458 344.618 147.442C344.571 147.437 344.524 147.431 344.482 147.426C344.388 147.41 344.299 147.4 344.205 147.384H344.199C341.325 146.97 338.487 146.331 335.713 145.472C335.566 145.425 335.419 145.383 335.273 145.336C335.949 142.181 337.342 139.225 339.343 136.694C341.344 134.163 343.9 132.126 346.813 130.741C346.093 130.054 345.595 129.168 345.383 128.195C345.247 127.568 345.237 126.92 345.352 126.289C345.467 125.658 345.705 125.056 346.054 124.517C346.734 123.474 347.8 122.742 349.019 122.485L356.783 120.861C358.032 120.617 359.328 120.877 360.387 121.583C361.447 122.289 362.185 123.385 362.44 124.633C362.52 125.015 362.555 125.405 362.545 125.796C370.021 130.772 375.401 135.932 378.801 141.412Z" fill="#FFA553"/>
<path d="M391.375 91.3864C388.494 88.0262 387.124 83.5681 384.82 79.7524C382.517 75.9367 378.508 72.5217 374.274 73.4096C371.354 74.0218 369.098 76.5977 367.956 79.4696C366.814 82.3414 366.6 85.5085 366.4 88.6111C366.471 82.2351 362.27 76.0539 356.483 74.0193C350.697 71.9848 343.772 74.2542 340.136 79.3767C338.549 77.906 336.478 77.0686 334.315 77.0232C332.152 76.9777 330.048 77.7275 328.401 79.1303C325.148 82.0371 324.429 87.5697 326.82 91.2774C329.212 94.9851 334.392 96.3663 338.193 94.31L339.537 95.5462C338.781 98.1918 340.248 101.317 342.714 102.313C344.713 103.12 347.536 102.986 348.284 105.084C348.807 106.551 347.83 108.116 346.79 109.242C345.751 110.369 344.516 111.532 344.392 113.091C344.203 115.444 346.634 117.092 348.844 117.588C354.172 118.785 360.085 116.317 363.156 111.615C363.215 111.524 363.279 111.433 363.349 111.342C365.072 109.139 366.328 106.607 367.039 103.902C367.751 101.197 367.903 98.3749 367.488 95.6088C367.315 94.5219 367.489 93.7135 368.238 93.4561C371.477 92.3436 380.551 94.6786 383.298 96.7889C386.044 98.8992 388.243 101.692 390.888 103.939C393.534 106.185 396.905 107.918 400.264 107.306C402.954 106.816 405.242 104.863 406.782 102.508C408.321 100.152 409.207 97.406 410 94.6772C404.052 98.1136 395.91 96.6751 391.375 91.3864Z" fill="#212427"/>
<path d="M43.3897 56.4362C43.3897 57.7092 43.4316 58.9822 43.5207 60.2447C43.615 61.7534 43.7774 63.2517 43.9974 64.7395C44.7368 69.7489 46.1501 74.6355 48.1988 79.2663C48.3036 79.4968 48.4083 79.7273 48.5131 79.9578L48.6703 80.3036C48.7227 80.4188 48.7803 80.5341 48.8327 80.6441C48.906 80.796 48.9741 80.9427 49.0475 81.0894C49.1365 81.2727 49.2256 81.4561 49.3199 81.6394C49.3303 81.6604 49.3408 81.6866 49.3565 81.7128C49.4351 81.8699 49.5085 82.0218 49.5923 82.179C49.6077 82.2132 49.6252 82.2465 49.6447 82.2785C49.7337 82.4566 49.828 82.64 49.9223 82.8181C50.0271 83.0067 50.1266 83.2005 50.2314 83.3891C50.4829 83.8554 50.7448 84.3164 51.012 84.7774C51.0905 84.9136 51.1691 85.0498 51.2529 85.186C51.3263 85.3117 51.3996 85.4375 51.4782 85.5632C51.5306 85.647 51.583 85.7361 51.6354 85.8199C51.7192 85.9613 51.803 86.0975 51.8921 86.239C52.0859 86.548 52.285 86.8571 52.4788 87.1662H52.484C52.5731 87.3077 52.6674 87.4491 52.7617 87.5853V87.5906C53.0393 88.0097 53.3275 88.4287 53.6156 88.8426C53.6163 88.8426 53.617 88.8427 53.6176 88.8429C53.6182 88.8432 53.6188 88.8436 53.6193 88.8441C53.6198 88.8446 53.6202 88.8451 53.6205 88.8458C53.6207 88.8464 53.6208 88.8471 53.6208 88.8478C53.8513 89.1831 54.0923 89.5079 54.328 89.8327V89.8379C54.4852 90.0422 54.6371 90.2518 54.7943 90.4561C54.92 90.6237 55.051 90.7966 55.1819 90.9642C55.2081 91.0009 55.2396 91.0323 55.2658 91.069V91.0742C55.3024 91.1214 55.3391 91.1633 55.3758 91.2104C55.9311 91.9229 56.5038 92.6196 57.0941 93.3007L57.1884 93.4107C57.2198 93.4474 57.2565 93.484 57.2879 93.5259C57.3403 93.5836 57.3874 93.6412 57.4398 93.6988C57.487 93.7564 57.5394 93.8141 57.5917 93.8717C60.6685 97.3375 64.1571 100.414 67.98 103.034C68.4882 103.385 69.0068 103.726 69.5254 104.056C69.6564 104.139 69.7874 104.223 69.9183 104.302C69.955 104.328 69.9969 104.354 70.0336 104.38C70.1069 104.422 70.175 104.464 70.2484 104.511C70.3165 104.553 70.3846 104.595 70.4579 104.637C70.7356 104.81 71.0185 104.978 71.3014 105.145C71.3695 105.187 71.4428 105.229 71.5161 105.271C71.5842 105.308 71.6576 105.35 71.7309 105.392C71.7309 105.397 71.7309 105.397 71.7362 105.397H71.7414V105.402H71.7466C72.0976 105.606 72.4539 105.805 72.8153 105.999C73.0091 106.104 73.2082 106.214 73.4073 106.314C73.8578 106.56 74.3136 106.796 74.7694 107.021C74.9317 107.099 75.0994 107.178 75.2618 107.262C75.398 107.325 75.5342 107.393 75.6704 107.456C75.7123 107.477 75.749 107.492 75.7857 107.513C75.9009 107.566 76.0109 107.618 76.1262 107.67C76.2519 107.728 76.3776 107.786 76.4981 107.843C76.6395 107.906 76.7758 107.969 76.9172 108.027C77.4411 108.262 77.9702 108.488 78.4993 108.702C80.3955 109.48 82.3332 110.151 84.3037 110.714C84.3928 110.74 84.4871 110.766 84.5814 110.793C85.4248 111.028 86.2735 111.243 87.1274 111.437C88.6204 111.783 90.1274 112.066 91.6484 112.286H91.6589C91.8422 112.312 92.0203 112.338 92.2037 112.364C92.2194 112.364 92.2351 112.369 92.2561 112.369C92.2561 112.375 92.2561 112.375 92.2613 112.369C92.4604 112.396 92.6647 112.422 92.8637 112.448C92.8773 112.452 92.8915 112.454 92.9057 112.453C93.0943 112.479 93.2881 112.5 93.4767 112.521C93.681 112.542 93.8853 112.563 94.0896 112.584C94.2468 112.6 94.4039 112.616 94.5611 112.631C94.5745 112.636 94.5888 112.638 94.603 112.637C94.7444 112.647 94.8859 112.663 95.0273 112.673H95.0483C95.1688 112.684 95.2945 112.694 95.415 112.705C96.8766 112.82 98.3434 112.872 99.8312 112.872C101.439 112.872 103.037 112.809 104.614 112.673H104.63C104.97 112.642 105.306 112.61 105.641 112.579C105.73 112.569 105.814 112.563 105.903 112.553C105.919 112.553 105.939 112.548 105.955 112.548C105.981 112.542 106.008 112.542 106.039 112.537C106.053 112.538 106.067 112.536 106.081 112.532C106.196 112.521 106.311 112.506 106.432 112.495L106.825 112.448C106.956 112.432 107.087 112.411 107.218 112.396C107.249 112.39 107.275 112.39 107.307 112.385C107.401 112.375 107.495 112.359 107.59 112.343C107.637 112.338 107.684 112.333 107.726 112.328C107.82 112.312 107.909 112.301 108.004 112.286H108.009C110.883 111.872 113.721 111.232 116.495 110.374C116.642 110.326 116.789 110.284 116.935 110.237C116.941 110.237 116.946 110.232 116.951 110.232C116.993 110.216 117.04 110.206 117.082 110.19C117.475 110.064 117.863 109.934 118.25 109.797C118.785 109.619 119.314 109.425 119.843 109.226C119.984 109.169 120.126 109.116 120.267 109.059C120.555 108.949 120.838 108.833 121.121 108.718C121.603 108.524 122.085 108.32 122.562 108.11C123.007 107.911 123.447 107.712 123.887 107.503C123.898 107.498 123.913 107.498 123.924 107.487C124.023 107.44 124.123 107.393 124.217 107.346H124.222C126.635 106.188 128.962 104.859 131.185 103.369C131.897 102.893 132.599 102.4 133.291 101.892C133.846 101.478 134.391 101.059 134.936 100.63C137.623 98.4917 140.111 96.114 142.369 93.526V93.5207C142.532 93.3426 142.684 93.1593 142.841 92.9759C142.867 92.9497 142.888 92.9235 142.909 92.9026C143.008 92.7821 143.103 92.6668 143.202 92.5516V92.5463C143.333 92.3944 143.464 92.2373 143.59 92.0801C143.621 92.0435 143.647 92.012 143.674 91.9806V91.9753C143.778 91.8496 143.878 91.7239 143.983 91.5929C144.035 91.53 144.082 91.4672 144.135 91.4043V91.3991C144.444 91.0114 144.742 90.6237 145.041 90.2256C145.12 90.1208 145.198 90.0108 145.282 89.9008C145.659 89.3927 146.026 88.874 146.382 88.3554V88.3502C146.518 88.1563 146.649 87.9573 146.785 87.7634C146.916 87.5644 147.047 87.3653 147.178 87.1663C147.309 86.9567 147.445 86.7524 147.576 86.5429L147.592 86.5114C147.723 86.3124 147.854 86.1028 147.98 85.8985C148.079 85.7308 148.179 85.5684 148.278 85.406C148.341 85.296 148.409 85.186 148.472 85.0708C148.497 85.0353 148.52 84.9986 148.54 84.9608C148.687 84.7041 148.834 84.4474 148.98 84.1907C149.153 83.8921 149.321 83.5882 149.489 83.2844C149.551 83.1587 149.62 83.0329 149.688 82.9072C149.714 82.8653 149.735 82.8234 149.756 82.7815C149.834 82.6348 149.913 82.4829 149.986 82.331C150.065 82.1843 150.143 82.0324 150.222 81.8804C150.295 81.7338 150.374 81.5818 150.447 81.4299C150.505 81.3147 150.557 81.1994 150.615 81.0841C150.619 81.0748 150.624 81.0659 150.631 81.058C150.657 81.0003 150.683 80.948 150.704 80.8956C150.71 80.8876 150.716 80.8788 150.72 80.8694C150.777 80.7541 150.83 80.6336 150.887 80.5184C150.961 80.3665 151.029 80.2093 151.102 80.0574C151.149 79.9526 151.202 79.8426 151.249 79.7326C151.317 79.5807 151.39 79.4287 151.453 79.2716C151.526 79.1144 151.595 78.9573 151.663 78.7949C151.682 78.7557 151.7 78.7154 151.715 78.6744C151.752 78.601 151.778 78.5277 151.809 78.4543C151.893 78.2605 151.977 78.0614 152.056 77.8676C152.15 77.6476 152.239 77.4223 152.323 77.2023C152.406 76.998 152.485 76.7884 152.564 76.5789L152.595 76.5056C153.816 73.2906 154.742 69.9713 155.361 66.5887V66.5835C155.711 64.6523 155.961 62.7044 156.11 60.7476C156.115 60.6376 156.126 60.5328 156.131 60.4281C156.226 59.1027 156.267 57.7721 156.267 56.4362C156.267 55.8442 156.257 55.2575 156.241 54.6708C155.876 42.3999 151.5 30.5867 143.784 21.0385C143.616 20.8289 143.448 20.6194 143.275 20.4098C143.103 20.2003 142.925 19.996 142.752 19.7917C137.009 13.0664 129.766 7.78448 121.607 4.37189C113.449 0.959285 104.602 -0.488553 95.7815 0.14508C86.9606 0.778713 78.412 3.47608 70.8248 8.01976C63.2376 12.5634 56.8242 18.8263 52.1016 26.3033C51.8449 26.712 51.5883 27.1258 51.342 27.5397C51.0906 27.9588 50.8496 28.3779 50.6086 28.8022C45.8627 37.2382 43.3761 46.7569 43.3897 56.4362Z" fill="#F5F5F5"/>
<path d="M97.5878 19.5216C106.868 21.903 116.379 23.2757 125.954 23.6158C127.402 23.6946 128.854 23.6848 130.3 23.5862C133.48 23.3188 136.203 22.3195 139.236 21.7735C140.694 21.5117 142.318 21.3203 143.786 21.0374C143.447 20.6166 143.102 20.2009 142.75 19.7904C139.585 20.0578 136.371 20.9332 133.167 21.34C127.722 22.0324 121.621 21.2597 117.493 19.3541C115.49 18.4294 113.956 17.2754 111.96 16.3465C111.689 16.2071 111.395 16.1171 111.092 16.0805C110.517 16.0632 109.948 16.2107 109.454 16.5055C106.105 18.1958 101.244 19.5694 96.7321 18.8137C96.3957 19.0768 97.0347 19.3766 97.5878 19.5216Z" fill="#518DED"/>
<path d="M77.6206 25.47C77.5794 25.4624 77.5381 25.4566 77.4968 25.4494C77.6702 25.342 77.8334 25.219 77.9845 25.082L77.6206 25.47Z" fill="white"/>
<path d="M50.6096 28.8045C52.4941 28.9551 54.3885 29.0672 56.2928 29.1408C57.7407 29.219 59.1921 29.2091 60.6389 29.1113C63.8182 28.8425 66.5416 27.8446 69.5746 27.2985C72.3542 26.7989 75.732 26.5582 77.4969 25.4492C72.9355 24.6596 68.2094 26.2669 63.5058 26.865C59.7011 27.3329 55.8443 27.1424 52.1043 26.3021C51.5835 27.1212 51.0853 27.9553 50.6096 28.8045Z" fill="#518DED"/>
<path d="M73.4072 106.313C73.8578 106.56 74.3135 106.795 74.7693 107.021C74.9317 107.099 75.0993 107.178 75.2617 107.262C75.3979 107.325 75.5341 107.393 75.6703 107.455C75.7122 107.476 75.7489 107.492 75.7856 107.513C75.9008 107.565 76.0108 107.618 76.1261 107.67C76.2518 107.728 76.3776 107.786 76.4981 107.843C76.6395 107.906 76.7757 107.969 76.9171 108.026C77.441 108.262 77.9701 108.487 78.4992 108.702C80.3954 109.48 82.3332 110.151 84.3037 110.714C84.3927 110.74 84.487 110.766 84.5813 110.793C85.4248 111.028 86.2734 111.243 87.1273 111.437C88.6204 111.783 90.1274 112.066 91.6483 112.286H91.6588C91.8421 112.312 92.0203 112.338 92.2036 112.364C92.2193 112.364 92.2351 112.369 92.256 112.369C92.256 112.375 92.256 112.375 92.2612 112.369C92.4603 112.396 92.6646 112.422 92.8637 112.448C92.8773 112.452 92.8914 112.454 92.9056 112.453C93.0942 112.479 93.288 112.5 93.4766 112.521C93.6809 112.542 93.8852 112.563 94.0895 112.584C94.2467 112.6 94.4039 112.616 94.561 112.631C94.5745 112.636 94.5887 112.638 94.6029 112.637C94.7444 112.647 94.8858 112.663 95.0273 112.673H95.0482C95.1687 112.684 95.2944 112.694 95.4149 112.705C96.8765 112.82 98.3433 112.872 99.8311 112.872C101.439 112.872 103.037 112.809 104.614 112.673H104.63C104.97 112.642 105.306 112.61 105.641 112.579C105.73 112.568 105.814 112.563 105.903 112.553C105.918 112.553 105.939 112.547 105.955 112.547C105.981 112.542 106.008 112.542 106.039 112.537C106.053 112.538 106.067 112.536 106.081 112.532C106.196 112.521 106.311 112.506 106.432 112.495L106.825 112.448C106.956 112.432 107.087 112.411 107.218 112.396C107.249 112.39 107.275 112.39 107.307 112.385C107.401 112.375 107.495 112.359 107.59 112.343C107.637 112.338 107.684 112.333 107.726 112.327C107.82 112.312 107.909 112.301 108.003 112.286H108.009C110.883 111.872 113.721 111.232 116.495 110.373C116.642 110.326 116.789 110.284 116.935 110.237C116.259 107.083 114.866 104.126 112.865 101.595C110.864 99.0646 108.308 97.0278 105.395 95.6423C106.115 94.9558 106.613 94.0689 106.825 93.0963C106.961 92.4693 106.972 91.8217 106.856 91.1906C106.741 90.5595 106.503 89.9573 106.154 89.4188C105.474 88.3749 104.408 87.6438 103.189 87.3861L95.4254 85.7622C94.1756 85.5185 92.8802 85.778 91.8207 86.4843C90.7612 87.1907 90.0234 88.2866 89.7676 89.534C89.6884 89.9164 89.6533 90.3066 89.6629 90.697C82.1873 95.6737 76.8071 100.834 73.4072 106.313Z" fill="#518DED"/>
<path d="M104.121 80.5216C114.558 80.5216 123.018 72.0609 123.018 61.6241C123.018 51.1873 114.558 42.7266 104.121 42.7266C93.6839 42.7266 85.2231 51.1873 85.2231 61.6241C85.2231 72.0609 93.6839 80.5216 104.121 80.5216Z" fill="#FFB6B6"/>
<path d="M101.435 79.5117C96.7044 80.7894 91.4887 79.0906 87.7966 75.8683C84.1045 72.646 81.795 68.0799 80.4643 63.3636C79.4896 59.9094 79.0275 56.0752 80.5655 52.8324C82.1035 49.5896 86.2427 47.4018 89.4362 49.0398C87.4662 46.7446 88.4504 42.9484 90.7512 40.985C93.052 39.0215 96.2113 38.4586 99.2204 38.1508C103.587 37.7043 108.098 37.6543 112.254 39.069C116.409 40.4838 120.185 43.5768 121.485 47.7695C122.813 48.3879 124.309 48.5483 125.739 48.2257C127.168 47.903 128.45 47.1154 129.383 45.9862C129.624 47.283 129.431 48.6231 128.833 49.799C128.236 50.9749 127.267 51.9211 126.078 52.4911L132.445 50.4269C133.54 52.7447 131.621 55.6132 129.168 56.3554C126.714 57.0977 124.065 56.2864 121.737 55.2141C119.409 54.1418 117.152 52.7861 114.623 52.3679C112.094 51.9497 109.124 52.7623 107.954 55.0432C107.341 56.2379 107.309 57.637 106.953 58.9316C106.598 60.2262 105.697 61.5685 104.358 61.6744C103.513 61.7414 102.685 61.291 101.841 61.3831C101.324 61.485 100.847 61.7356 100.47 62.1041C100.093 62.4727 99.8313 62.9433 99.7174 63.4583C99.5075 64.4917 99.5049 65.5566 99.7099 66.591L101.327 78.9533L101.435 79.5117Z" fill="#212427"/>
</svg>
