<svg width="22" height="30" viewBox="0 0 22 30" fill="none" xmlns="http://www.w3.org/2000/svg">
<path d="M5.96014 23.3905H16.1809V25.5169H5.96014V23.3905ZM8.0043 27.6434H14.1368V29.7698H8.0043V27.6434ZM11.0705 0C8.35981 0 5.76012 1.12016 3.84335 3.11406C1.92658 5.10796 0.849753 7.81226 0.849753 10.6321C0.780634 12.1773 1.06518 13.7174 1.67998 15.1259C2.29478 16.5344 3.22227 17.7709 4.38614 18.7337C5.40822 19.7225 5.96014 20.286 5.96014 21.2641H8.0043C8.0043 19.3078 6.86979 18.2127 5.76595 17.1601C4.81067 16.3992 4.04934 15.4062 3.54863 14.2681C3.04792 13.13 2.82312 11.8815 2.89391 10.6321C2.89391 8.37622 3.75537 6.21278 5.28879 4.61766C6.8222 3.02254 8.90196 2.12641 11.0705 2.12641C13.2391 2.12641 15.3189 3.02254 16.8523 4.61766C18.3857 6.21278 19.2472 8.37622 19.2472 10.6321C19.3168 11.8824 19.0904 13.1315 18.5879 14.2696C18.0853 15.4078 17.322 16.4003 16.3649 17.1601C15.2713 18.2234 14.1368 19.2866 14.1368 21.2641H16.1809C16.1809 20.286 16.7226 19.7225 17.7549 18.7231C18.918 17.7619 19.845 16.5272 20.4598 15.1206C21.0746 13.714 21.3596 12.1756 21.2913 10.6321C21.2913 9.23584 21.0269 7.85329 20.5133 6.56335C19.9997 5.27341 19.2468 4.10134 18.2977 3.11406C17.3486 2.12678 16.2219 1.34363 14.9819 0.809317C13.7418 0.275006 12.4127 0 11.0705 0Z" fill="white"/>
</svg>
