<svg width="11" height="20" viewBox="0 0 11 20" fill="none" xmlns="http://www.w3.org/2000/svg">
<path d="M0.42064 0.44023C0.151305 0.722195 9.10057e-07 1.10457 8.94313e-07 1.50327C8.7857e-07 1.90197 0.151305 2.28434 0.42064 2.56631L7.53218 10.0091L0.420639 17.4518C0.158938 17.7354 0.0141289 18.1152 0.0174019 18.5095C0.0206759 18.9037 0.171768 19.2808 0.438139 19.5596C0.704511 19.8384 1.06485 19.9965 1.44154 19.9999C1.81823 20.0034 2.18114 19.8518 2.4521 19.5779L10.5794 11.0721C10.8487 10.7902 11 10.4078 11 10.0091C11 9.61038 10.8487 9.228 10.5794 8.94604L2.4521 0.44023C2.18268 0.158351 1.81732 -4.44318e-07 1.43637 -4.62752e-07C1.05541 -4.81185e-07 0.690056 0.158351 0.42064 0.44023Z" fill="white"/>
</svg>
